<mxfile host="app.diagrams.net" agent="Mozilla/5.0 (Windows NT 10.0; Win64; x64) AppleWebKit/537.36 (KHTML, like Gecko) Chrome/140.0.0.0 Safari/537.36" version="28.2.5">
  <diagram name="PÃ¡gina-1" id="jV9_cxqBifurhF2s_XKo">
    <mxGraphModel dx="2492" dy="743" grid="1" gridSize="10" guides="1" tooltips="1" connect="1" arrows="1" fold="1" page="1" pageScale="1" pageWidth="827" pageHeight="1169" math="0" shadow="0">
      <root>
        <mxCell id="0" />
        <mxCell id="1" parent="0" />
        <mxCell id="4C4a_T4golNSF8rx9o6t-125" value="" style="group" parent="1" vertex="1" connectable="0">
          <mxGeometry x="210" y="410" width="250" height="140.56" as="geometry" />
        </mxCell>
        <mxCell id="4C4a_T4golNSF8rx9o6t-13" value="" style="rounded=0;whiteSpace=wrap;html=1;" parent="4C4a_T4golNSF8rx9o6t-125" vertex="1">
          <mxGeometry width="250" height="140.56" as="geometry" />
        </mxCell>
        <mxCell id="4C4a_T4golNSF8rx9o6t-18" value="Text Splitter" style="rounded=0;whiteSpace=wrap;html=1;" parent="4C4a_T4golNSF8rx9o6t-125" vertex="1">
          <mxGeometry x="65.21739130434783" y="39.99913981762915" width="130.43478260869566" height="38.53439999999999" as="geometry" />
        </mxCell>
        <mxCell id="4C4a_T4golNSF8rx9o6t-15" value="Document Loaders" style="rounded=0;whiteSpace=wrap;html=1;" parent="4C4a_T4golNSF8rx9o6t-125" vertex="1">
          <mxGeometry x="65.21739130434783" y="94.37947902735561" width="130.43478260869566" height="38.53439999999999" as="geometry" />
        </mxCell>
        <mxCell id="4C4a_T4golNSF8rx9o6t-14" value="RAG - Indexation Job" style="text;html=1;align=center;verticalAlign=middle;whiteSpace=wrap;rounded=0;" parent="4C4a_T4golNSF8rx9o6t-125" vertex="1">
          <mxGeometry width="140" height="34.87" as="geometry" />
        </mxCell>
        <mxCell id="4C4a_T4golNSF8rx9o6t-19" style="edgeStyle=orthogonalEdgeStyle;rounded=0;orthogonalLoop=1;jettySize=auto;html=1;exitX=0.5;exitY=0;exitDx=0;exitDy=0;entryX=0.5;entryY=1;entryDx=0;entryDy=0;" parent="4C4a_T4golNSF8rx9o6t-125" source="4C4a_T4golNSF8rx9o6t-15" target="4C4a_T4golNSF8rx9o6t-18" edge="1">
          <mxGeometry relative="1" as="geometry" />
        </mxCell>
        <mxCell id="4C4a_T4golNSF8rx9o6t-4" value="" style="group" parent="1" vertex="1" connectable="0">
          <mxGeometry x="280" y="590" width="110" height="120" as="geometry" />
        </mxCell>
        <mxCell id="4C4a_T4golNSF8rx9o6t-2" value="" style="rounded=0;whiteSpace=wrap;html=1;" parent="4C4a_T4golNSF8rx9o6t-4" vertex="1">
          <mxGeometry x="5" width="110" height="120" as="geometry" />
        </mxCell>
        <mxCell id="4C4a_T4golNSF8rx9o6t-1" value="" style="image;html=1;image=img/lib/atlassian/Jira_Logo.svg;" parent="4C4a_T4golNSF8rx9o6t-4" vertex="1">
          <mxGeometry x="20" y="14" width="72" height="72" as="geometry" />
        </mxCell>
        <mxCell id="4C4a_T4golNSF8rx9o6t-3" value="Jira API" style="text;html=1;align=center;verticalAlign=middle;whiteSpace=wrap;rounded=0;" parent="4C4a_T4golNSF8rx9o6t-4" vertex="1">
          <mxGeometry x="25" y="90" width="60" height="30" as="geometry" />
        </mxCell>
        <mxCell id="4C4a_T4golNSF8rx9o6t-10" value="" style="group" parent="1" vertex="1" connectable="0">
          <mxGeometry x="150" y="590" width="110" height="120" as="geometry" />
        </mxCell>
        <mxCell id="4C4a_T4golNSF8rx9o6t-7" value="" style="rounded=0;whiteSpace=wrap;html=1;" parent="4C4a_T4golNSF8rx9o6t-10" vertex="1">
          <mxGeometry width="110" height="120" as="geometry" />
        </mxCell>
        <mxCell id="4C4a_T4golNSF8rx9o6t-5" value="" style="shape=image;html=1;verticalAlign=top;verticalLabelPosition=bottom;labelBackgroundColor=#ffffff;imageAspect=0;aspect=fixed;image=https://icons.diagrams.net/icon-cache1/Logos_Microsoft_Office_365-2232/Microsoft_Office-09-1167.svg" parent="4C4a_T4golNSF8rx9o6t-10" vertex="1">
          <mxGeometry x="15" y="10" width="80" height="80" as="geometry" />
        </mxCell>
        <mxCell id="4C4a_T4golNSF8rx9o6t-9" value="SharePoint API" style="text;html=1;align=center;verticalAlign=middle;whiteSpace=wrap;rounded=0;" parent="4C4a_T4golNSF8rx9o6t-10" vertex="1">
          <mxGeometry x="12.5" y="90" width="85" height="30" as="geometry" />
        </mxCell>
        <mxCell id="4C4a_T4golNSF8rx9o6t-33" value="" style="group" parent="1" vertex="1" connectable="0">
          <mxGeometry x="340.0012244897959" y="280" width="110.00000000000001" height="116.66666666666667" as="geometry" />
        </mxCell>
        <mxCell id="4C4a_T4golNSF8rx9o6t-30" value="" style="rounded=0;whiteSpace=wrap;html=1;" parent="4C4a_T4golNSF8rx9o6t-33" vertex="1">
          <mxGeometry width="110.00000000000001" height="116.66666666666667" as="geometry" />
        </mxCell>
        <mxCell id="4C4a_T4golNSF8rx9o6t-27" value="" style="image;aspect=fixed;html=1;points=[];align=center;fontSize=12;image=img/lib/azure2/databases/Azure_Database_PostgreSQL_Server.svg;" parent="4C4a_T4golNSF8rx9o6t-33" vertex="1">
          <mxGeometry x="28" y="8" width="54" height="72" as="geometry" />
        </mxCell>
        <mxCell id="4C4a_T4golNSF8rx9o6t-32" value="PostgreSQL - Vector Store" style="text;html=1;align=center;verticalAlign=middle;whiteSpace=wrap;rounded=0;" parent="4C4a_T4golNSF8rx9o6t-33" vertex="1">
          <mxGeometry x="12.500000000000002" y="87.5" width="85.00000000000001" height="29.166666666666668" as="geometry" />
        </mxCell>
        <mxCell id="4C4a_T4golNSF8rx9o6t-17" style="edgeStyle=orthogonalEdgeStyle;rounded=0;orthogonalLoop=1;jettySize=auto;html=1;exitX=0.25;exitY=1;exitDx=0;exitDy=0;entryX=0.5;entryY=0;entryDx=0;entryDy=0;" parent="1" source="4C4a_T4golNSF8rx9o6t-15" target="4C4a_T4golNSF8rx9o6t-7" edge="1">
          <mxGeometry relative="1" as="geometry" />
        </mxCell>
        <mxCell id="4C4a_T4golNSF8rx9o6t-44" style="edgeStyle=orthogonalEdgeStyle;rounded=0;orthogonalLoop=1;jettySize=auto;html=1;exitX=0.5;exitY=1;exitDx=0;exitDy=0;entryX=0.5;entryY=0;entryDx=0;entryDy=0;" parent="1" source="4C4a_T4golNSF8rx9o6t-15" target="4C4a_T4golNSF8rx9o6t-2" edge="1">
          <mxGeometry relative="1" as="geometry" />
        </mxCell>
        <mxCell id="4C4a_T4golNSF8rx9o6t-51" style="edgeStyle=orthogonalEdgeStyle;rounded=0;orthogonalLoop=1;jettySize=auto;html=1;exitX=0.75;exitY=1;exitDx=0;exitDy=0;entryX=0.5;entryY=0;entryDx=0;entryDy=0;" parent="1" source="4C4a_T4golNSF8rx9o6t-15" target="4C4a_T4golNSF8rx9o6t-47" edge="1">
          <mxGeometry relative="1" as="geometry" />
        </mxCell>
        <mxCell id="4C4a_T4golNSF8rx9o6t-52" value="" style="group" parent="1" vertex="1" connectable="0">
          <mxGeometry x="420" y="590" width="130" height="120" as="geometry" />
        </mxCell>
        <mxCell id="4C4a_T4golNSF8rx9o6t-47" value="" style="rounded=0;whiteSpace=wrap;html=1;" parent="4C4a_T4golNSF8rx9o6t-52" vertex="1">
          <mxGeometry width="110" height="120" as="geometry" />
        </mxCell>
        <mxCell id="4C4a_T4golNSF8rx9o6t-45" value="" style="dashed=0;outlineConnect=0;html=1;align=center;labelPosition=center;verticalLabelPosition=bottom;verticalAlign=top;shape=mxgraph.weblogos.google_drive" parent="4C4a_T4golNSF8rx9o6t-52" vertex="1">
          <mxGeometry x="10" y="13.54000000000002" width="88.75" height="76.46" as="geometry" />
        </mxCell>
        <mxCell id="4C4a_T4golNSF8rx9o6t-49" value="Google Drive API" style="text;html=1;align=center;verticalAlign=middle;whiteSpace=wrap;rounded=0;" parent="4C4a_T4golNSF8rx9o6t-52" vertex="1">
          <mxGeometry x="-2.5" y="90" width="112.5" height="30" as="geometry" />
        </mxCell>
        <mxCell id="4C4a_T4golNSF8rx9o6t-62" value="" style="group" parent="1" vertex="1" connectable="0">
          <mxGeometry x="220" y="280" width="110.00000000000001" height="116.66666666666667" as="geometry" />
        </mxCell>
        <mxCell id="4C4a_T4golNSF8rx9o6t-63" value="" style="rounded=0;whiteSpace=wrap;html=1;" parent="4C4a_T4golNSF8rx9o6t-62" vertex="1">
          <mxGeometry width="110.00000000000001" height="116.66666666666667" as="geometry" />
        </mxCell>
        <mxCell id="4C4a_T4golNSF8rx9o6t-64" value="" style="image;aspect=fixed;html=1;points=[];align=center;fontSize=12;image=img/lib/azure2/databases/Azure_Database_PostgreSQL_Server.svg;" parent="4C4a_T4golNSF8rx9o6t-62" vertex="1">
          <mxGeometry x="28" y="8" width="54" height="72" as="geometry" />
        </mxCell>
        <mxCell id="4C4a_T4golNSF8rx9o6t-65" value="PostgreSQL - Application DB" style="text;html=1;align=center;verticalAlign=middle;whiteSpace=wrap;rounded=0;" parent="4C4a_T4golNSF8rx9o6t-62" vertex="1">
          <mxGeometry x="12.500000000000002" y="87.5" width="85.00000000000001" height="29.166666666666668" as="geometry" />
        </mxCell>
        <mxCell id="4C4a_T4golNSF8rx9o6t-73" value="" style="group" parent="1" vertex="1" connectable="0">
          <mxGeometry x="210" y="110" width="250" height="150" as="geometry" />
        </mxCell>
        <mxCell id="4C4a_T4golNSF8rx9o6t-38" value="" style="rounded=0;whiteSpace=wrap;html=1;" parent="4C4a_T4golNSF8rx9o6t-73" vertex="1">
          <mxGeometry width="250" height="150" as="geometry" />
        </mxCell>
        <mxCell id="4C4a_T4golNSF8rx9o6t-39" value="RAG - Retrieval Microservice" style="text;html=1;align=center;verticalAlign=middle;whiteSpace=wrap;rounded=0;" parent="4C4a_T4golNSF8rx9o6t-73" vertex="1">
          <mxGeometry width="230" height="21.16" as="geometry" />
        </mxCell>
        <mxCell id="4C4a_T4golNSF8rx9o6t-68" value="Retriever with Self-Query Approach" style="rounded=0;whiteSpace=wrap;html=1;" parent="4C4a_T4golNSF8rx9o6t-73" vertex="1">
          <mxGeometry x="130" y="100" width="115" height="34" as="geometry" />
        </mxCell>
        <mxCell id="4C4a_T4golNSF8rx9o6t-69" value="Retriever with Text-to-SQL Approach" style="rounded=0;whiteSpace=wrap;html=1;" parent="4C4a_T4golNSF8rx9o6t-73" vertex="1">
          <mxGeometry x="5" y="100" width="115" height="34" as="geometry" />
        </mxCell>
        <mxCell id="4C4a_T4golNSF8rx9o6t-74" style="edgeStyle=orthogonalEdgeStyle;rounded=0;orthogonalLoop=1;jettySize=auto;html=1;exitX=0.75;exitY=1;exitDx=0;exitDy=0;entryX=0.5;entryY=0;entryDx=0;entryDy=0;" parent="4C4a_T4golNSF8rx9o6t-73" source="4C4a_T4golNSF8rx9o6t-70" target="4C4a_T4golNSF8rx9o6t-68" edge="1">
          <mxGeometry relative="1" as="geometry" />
        </mxCell>
        <mxCell id="4C4a_T4golNSF8rx9o6t-75" style="edgeStyle=orthogonalEdgeStyle;rounded=0;orthogonalLoop=1;jettySize=auto;html=1;exitX=0.25;exitY=1;exitDx=0;exitDy=0;entryX=0.5;entryY=0;entryDx=0;entryDy=0;" parent="4C4a_T4golNSF8rx9o6t-73" source="4C4a_T4golNSF8rx9o6t-70" target="4C4a_T4golNSF8rx9o6t-69" edge="1">
          <mxGeometry relative="1" as="geometry" />
        </mxCell>
        <mxCell id="4C4a_T4golNSF8rx9o6t-70" value="Retriever Router&lt;br&gt;(SQL vs Vector)" style="rounded=0;whiteSpace=wrap;html=1;" parent="4C4a_T4golNSF8rx9o6t-73" vertex="1">
          <mxGeometry x="67.5" y="30" width="115" height="34" as="geometry" />
        </mxCell>
        <mxCell id="4C4a_T4golNSF8rx9o6t-76" style="edgeStyle=orthogonalEdgeStyle;rounded=0;orthogonalLoop=1;jettySize=auto;html=1;exitX=0.5;exitY=1;exitDx=0;exitDy=0;entryX=0.5;entryY=0;entryDx=0;entryDy=0;" parent="1" source="4C4a_T4golNSF8rx9o6t-69" target="4C4a_T4golNSF8rx9o6t-63" edge="1">
          <mxGeometry relative="1" as="geometry" />
        </mxCell>
        <mxCell id="4C4a_T4golNSF8rx9o6t-77" style="edgeStyle=orthogonalEdgeStyle;rounded=0;orthogonalLoop=1;jettySize=auto;html=1;exitX=0.5;exitY=1;exitDx=0;exitDy=0;entryX=0.5;entryY=0;entryDx=0;entryDy=0;" parent="1" source="4C4a_T4golNSF8rx9o6t-68" target="4C4a_T4golNSF8rx9o6t-30" edge="1">
          <mxGeometry relative="1" as="geometry" />
        </mxCell>
        <mxCell id="4C4a_T4golNSF8rx9o6t-85" value="" style="group" parent="1" vertex="1" connectable="0">
          <mxGeometry x="-80" y="90" width="120" height="116.67000000000002" as="geometry" />
        </mxCell>
        <mxCell id="4C4a_T4golNSF8rx9o6t-82" value="" style="rounded=0;whiteSpace=wrap;html=1;" parent="4C4a_T4golNSF8rx9o6t-85" vertex="1">
          <mxGeometry width="120" height="116.67" as="geometry" />
        </mxCell>
        <mxCell id="4C4a_T4golNSF8rx9o6t-84" value="NestJS - Application Gateway" style="text;html=1;align=center;verticalAlign=middle;whiteSpace=wrap;rounded=0;" parent="4C4a_T4golNSF8rx9o6t-85" vertex="1">
          <mxGeometry y="87.5" width="117.5" height="29.17" as="geometry" />
        </mxCell>
        <mxCell id="4C4a_T4golNSF8rx9o6t-80" value="" style="shape=image;verticalLabelPosition=bottom;labelBackgroundColor=default;verticalAlign=top;aspect=fixed;imageAspect=0;image=data:image/png,iVBORw0KGgoAAAANSUhEUgAAAgAAAAIACAYAAAD0eNT6AAAQAElEQVR4Aey9XXbbuLquC1BVt3u4OjC3KN+vcjpQlZzLWSP+6UBV0oFU3IFkJB2Ia3bAnqcDUeyR2+nUbMBydu4j6qwG7His21oizvuBki3JlMQfkATJV4O0JP4AHx7Q+l58AMFA8UUCJEACJEACJNA7AhQAvatyFpgE2kEgGh7vTcK//xSNjl5Fo8N3Ufj0OnWVfTjGHotz2lE6WkkCTRNQigKg+TqgBSRAAnMCcPoH1tmPDm9UEH/T+rs/lTJvsPul0vpx6qrUSznGHotzcP5NBEGAtIaKLxIggY0EKAA2ouEOEiCBOglE+0+P4fSvkSccujpQxV84F6IhiCOJGEz2j34tnhTPJIFuEpBSUQAIBa4kQAKNEwi/Xo1VHDyBIV+wulkQNdDG/DMaHUYUAm6QMpXuEKAA6E5dsiQk0HoC4XT8GSLgZ6X0WLl9Da0QkHEEw2NECNwmztRIoF0EEmspABIO/EsCJOAJAYiA23Dy4UQpfaFcvxARQDfDTbR/9MJ10kyPBNpGgAKgbTVGe0mgJwQgAp6rKkSAwsuYP6LR0XnEuwYAg0vfCCzKSwGwIMF3EiAB7whUKgKUeYZowDVEQCV3CyDdx7J6B5UGkcCcAAXAHATfSIAEPCUQ61NY5m5gIBJbWg4gAm7gqN2PCwhmT5D2dTQ6jKTLAXnsLeXLjyTQEIH7bCkA7lnwEwmQgIcEZEyAioPfYNot1iqWPeuo5TbEKlJXaqjQ5YA8vkVJt0MlEQfFFwnkJEABkBMYDycBEqifAETAZ6VmMiFQVZnvKaPfR/tPn7nLIPjbw7Rst0NEIfCQDLfUQ2A5FwqAZRr8TAIk4C2BcPLxDMZV1RWApLEY/Q6hejfdASbe0tK/EwKvkN8ecuZCArUToACoHTkzJAESKEwgDn4vfG62E5PugOHxFuedLaFsR9kZC2Ug4kG243kUCZQhsHouBcAqD34jARLwmAC6Aj6hP/1TxSaKCHhfOg+tszr1ZCAi5yYojZwJ5CNAAZCPF48mARJomoAZVDkWYFG6g2h0+G7xJe87wvoSQcgX2jd3cxPIuXmz5PEksJPA+gEUAOtE+J0ESMBrAjYKoFS1YwESAi/njjz5lufvYJa19b+W6nxsQDJl8eO1nfxKAk4JUAA4xcnESIAEaiGgTeHWeS77AvM61/GLg43+efGx0HsyZfF1lNw2mC+SUChDntR9Ag9LSAHwkAm3kAAJ+E5gNnD9sKANJTbPEAUo0pp31HqfRwSqm6NgQ7m5uQ8EKAD6UMssIwl0jAC6AW6V+ycGqtRXMDtJ3b5hIwSD9OEXEQ0bUlR7do6CpFtA0lZ8kUBeAmnHUwCkUeE2EiAB/wno+EM9RurDXPkEs+e5js96cNItwCcZZuXF43YSoADYiYgHkAAJeElgNpjWZNcBWvU5+uH1rxXahWiA+SNiNKBCxF1MOr1MFADpXLiVBEjAcwLoBqh6PoBlAplC+hAK0vdffZie0YDluuHnggQoAAqC42kkQAJeEKgrCpCtsHpW7K6BbKmvH5VEA0ZH7yE8ckQo1pPh964T2FQ+CoBNZLidBEjAfwLG1CMAgr92RgDghIdKWua1UzPHKogj5C/Rh9pzZ4btJUAB0N66o+UkQAJa/bsWCPH3n3fmE5h65iZIN0SmL76ORofyMCNGA9IZ9XTr5mJTAGxmwz0kQAIkIATOdo03iPafPlMKLXE5utn1JaIBfLhQs3XQmtwpAFpTVTSUBEigAQJfwsnl6bZ8EXofKqObbP2vmycPF7qGKDle38Hv/SOwrcQUANvocB8JkIDfBIz6qUIDv6g42D2lr56dwwbfwu57ECXvpUsAtnEhgVQCFACpWLiRBEig5wSs80fo/3Ybh2j09E0zA/+2WbWy7yVEwA2iFL4JlBUj+aUqAtvTpQDYzod7SYAEekdAXyDs/+NO5z88PlBKv1L+v6RLQO4SgL3+G0sL6yNAAVAfa+ZEAiTgmoDWbp2aNs/DyYedU/miRS1O9dp1cSpMb08F8U1kBytWmAuT9orALmMoAHYR4n4SIAGfCbgKbU9VHDwKv15d7CrskvN3lfeuLN3tN/qcIsAdzranRAHQ9hqk/STQUwJwxI4mvtFj6/yn4533+iPPRcu/fc5/cZ2ICLDdF4sNfO8mgd2logDYzYhHkAAJ+EggmD0padatSkL+J7v6+yUftJxlxj0J+7fX+UtBZA1izhUgHHq+UgD0/AJg8UmgvQR0vsf0rhZURvk/yRjy34tGh+/ktjok0X7nj0JgkTEBfIYAQHR1yVIuCoAslHgMCZCAVwRsKF6pggMA9YWKg5/R6t8d8t9/Kq3+SCn1UnXvNVRJJKAroqZ7NVRxiSgAKgbM5EmABCogEJjfi6U6O5VR/nD+t9vOh8AYRuHT6461+tOKfKD07H3aDm5rM4FstlMAZOPEo0iABDwhIM5ZKfMspzm3aPU/CScfz3adF+0fvUDL+MbzCX52FSP7fq0fR6Oj8+wn8MiuEKAA6EpNshwk0BcCQfx7zqImzn86/rTtPAiLg2h0eKOM+QPH9Swsbp7ZWQ1RcC7tJ5C1BBQAWUnxOBIggcYJwEkPYUSe/ngZ7Bci5L+1vz8aHb2yrf7C4wpgVesX/Qp8Hd1a2XoYvSgABUAvqpmFJIGOEAjM6xwlEecvg/029vfD4SWtfmXe5Ei3u4cGMe8MaH3tZi8ABUB2VjySBEigQQJw1mj9Z+773+38k75+ua//oMFi+Zb1ngoMxwP4VisV2UMBUBFYJksCJOCYQDDbOUf/PEfp8z9C2H9zy18GvfWyr39OaOubOY5Gv+TpZtmaGnfWSyBPbhQAeWjxWBIggQYJ6F8zZR4HT+D8p2nHIoogk/rcqPx3EaQl1+Ftg9dgxchIh2tYikYBIBS4kgAJeE3ATsOrFLoA1PaXTO27YU5/ODSEt2OG/LcTXOwVVueW2WIL31tAIJ+JFAD5ePFoEiCBJgiY4Lfd2eqLTVP7WkcW0PnvZrhyhDz46PXKFn7pFAEKgE5VJwtDAt0jAOeNlr853lEy9Pvr07RjcP6eovNPQ5Nl20vwY1dAFlIeHJPXBAqAvMR4PAmQQL0Egr92OX+ltDlFv3/6oL9kqls6MVXwpWfvCp7J0zwnQAHgeQXRPBIgge9+3srAmE8bQ//7T5/1ZkrfrZBK7JSpgofHnCBI+f7Kbx8FQH5mPIMESKBWAma78zGD1El8ELreU0azD9tFXQUxowAuOHqWBgWAZxVCc0iABO4JwIlL6H7vfsuDT18Q+k+f4z+Z0Gb44AxuKELgIJJoSpEzeU4tBIpkQgFQhBrPIQESqIvANuev0Pef2jJNnJU5Vny5I4BoCgTZ9vpwlxtTqoEABUANkJkFCZBAQQLB7MmWM2839f0z9L+FWvFdQxXMUu+0KJ4kz3RDoFgqFADFuPEsEiCBxgnocZoJSetfMfSvqnjpF4wCVMG1mTQpAJrhzlxJgATKEtDxh/UkrHNCqHp9O787I7DHKIAzls4SKpoQBUBRcjyPBEigSQIS/n8YARjMpN+frf9Ka4ZRgErx1pg4BUCNsJkVCZCAIwLGfE5NyejfU7dzo0sCjAK4pFk6reIJUAAUZ8czSYAEmiKg1b/Xs0b4X1r+ctvg+i5+d04g45MZnefLBF0SoABwSZNpkQAJuCWgVZSaYNr2YPY89VhurILAcD7Ysoq0mWYOAmUOpQAoQ4/ndoaAtB4n4d9/ul9/OYxGR69KrftHL+7Tu0+7M9DqKMhsME3NZjZI6QLQh6nHcmM1BNjdUg3XGlOlAKgRNrOqh8C9M3/gxN9H4dNru44Ob6LRoVmsKogjrb/7834dfFDKvCm1GvOHXkkzSX+R5/z9xtojdo2OzqMl0THZP/pVBISUpx5y/uWyaZY/bE8RAIrhf1Xr6wDX5vZpmms1p4+ZlSszBUA5fjy7AQL40TmwjhEtbOswxXnKOjr8FsGp3zvzwboTP7YPhtFafrR8cRYH9zaZZ8uCQxvzTw0BIeWRcmGNrFiYC4UeCYQvuy4zXBNSp7sO437XBALzm+skmV59BCgA6mPNnHIQwA/60Dp52yI+fJc4vsMITtDAId5Yx4gWtnWY4tBlVarr05QOrVhQiVBIEQiIahy9j8BsEiL6MTw+UN14/WtnMQaz4c5jeEAFBMwz/K92/f+uAm5ukiybCgVAWYI8vzQB/IAcSGs2Gh0uHL04eRuStw5eqZeJ41P8kVdbX3D45liYaT34IEIJTE0ino5s98Ik/PtP4N2uH2xt/lwptTEPH/5jgqOVY/ilPgLJ3Av15cecnBGgAHCGkgllIQDnk+bsb6Q1i/MXjh4fuTgjYKMjxnYv6KRLQbpKvs2FwSsRBc7yqiCh8OvVGMmmDwbEjmQx7AJIQNT/l+KrfuY2x/J/KADKM2QKWwiIc4kQkk6czeE3aZXS2W8BVt+uPZUIgzciCqLR4TxScPhuknQf7NVnSqacRARsO9A3e7fZ2rF95hjCnvxbWKsUAC2sNJ9NnkiI+d7hG3EuEpJOnI3ij4Ty+GUFgXqpk+4DiRLcQBgsBEGz3S9x8Ifiy18C7AaovW5cZEgB4IJij9OA8j+IktH47+Es1h1+j8l0ougHKMVCEMgATKxH53a8xvC4VkEQTsfoAtAXsIeLjwTYDeBjrey0iQJgJyIesE7AOgB7K1oS0lfJaPzj9eP4vXME4PTNM9uFE8QQA4ey2ghBLSWN9RubTxKpsB/5xxcCht0AtVaFm8woANxw7HwqaOkP0cJ/h/WbdQD2VjTFkL7q9QuCQNkIAa6LZAyBRIOGxweqghejABVAdZkkuwFc0qwlLQqAWjC3NxM4/sfR6Oi9QosPpXiJlU4fELikEJCWuUSDgljGDtjoAK4fEQkpBxfcFOtTORPp8joUED6t7AaorTZcZUQB4Ipkx9KxYf7w6TUc/7VS5rhjxWNxqicgjv8lrh8RAjf2ehoel3baiALcwvQzrJVEGZAul8IEDG/FLMyumRMpAJrh7mWu0qqyP9Sjw8iG+aVF56WlNKplBA7s9YQoEqJJ57jOyjmKOJCxACIEljHsnC54+WB+roTAHuqWwqwStMuJuvtMAeCOZatTkpH8aK3N+/eVtN4UXyTgmAAiAOYZrrPrCCJTrjk4jNzXmkQBsK4/DOhfjm1lckUIBLOTIqfxnGYIUAA0w92bXKP9p8fyY5yM5PfGLBrSfQJDe80lUYH3k/2jX8sV2fx3ufN5thMCRv3kJB0mspGAyx0UAC5ptiitSBy/9PEb/R5m526F4RwuJOCIgDmWLgIIUZl86B2iAvnDyPFArmNH9jCZwgS0zl93hTPjiWUJUACUJdiy8+XHVablVeL42cffstrrvLnoIlAycFDuIriZdxHINrXrNe8SmO46jvsrJ7CH3xg2KCrD7DZhCgC3PL1NDf+Uj63jD+IbRcfvbT3RsDsCB/Mugm/R6Oh8Ev5yeLdn44cZHEG+EQAAEABJREFUpwveyKbGHYMZowA14i6TFQVAGXotOHeCvtVodHgjA6/o+FtQYTQxhYB5pvXgA65juaVQugjSW5jx9+OUk7mpbgJGPao7y77k57qcFACuiXqSnm3xjw6T2/mUoiJXfHWAgDh+6SKIJJplxe3S3ALoBkAXgKYIaLyig/9o3AQakIkABUAmTO05CI5/KD+OtsWvlPxgKr5IoHME0I0lAwdxnSMqcCRzCyQiN9bsBmi6sk2817QJ3czffakoANwzbSRFOP69CH2l8oOo8OPYiBHMlATqJwBnY2RugZsIES81MNL6XJ8kqH6r+pwjf39aU/sUAK2pqs2GRqOjV9bxK/wQbj6Me0ig6wSSuQWUgihQfDVIQBokDWbfyayrKBQFQBVUa0oT/2QHkQzwU0amRuWPXk3cmQ0JkMBOAkmXzM7DeECTBCgAmqRfIm+5Rxqt/mskwX80QOBCAiTgEYHBjOOPnFZHNYlRAFTDtbJU0eofRqOj9/YeaYY6K+PMhEmABEoQMCoscTZPrYkABUBNoF1kA+d/gFb/e8XH87rAyTRIgAQqIxD8rbKke5hwVUWmAKiKrON0o/2ndqQzkmXIHxC4kAAJeEzAxOwC8Lh6FqZRACxIePxunb/R5x6bSNNIgARI4J6A1hQA9zRKfqrudAqA6tg6SRn9/a8Unb8TlkyEBEigNgIUALWhLp4RBUBxdpWeKf39dka/5Ba/SvNi4iRAAiTgmgB+w3hrsgOoVSZBAVAl3YJp25B/EF8rzqhVkCBPIwES8IAAxyt5UAnbTKAA2EangX1LIX+q5wb4M0sSIAES8IdAtZZQAFTLN1fqcP7niiH/XMx4MAmQAAmQQDECFADFuDk/a+78nzlPmAmSAAmQAAm0kkDVRlMAVE04Q/p0/hkg8RASIAESIAGnBCgAnOLMnxidf35mPIMESIAEuk+g+hJSAFTPeGMO0ejwHfr8GfbfSIg7SIAESIAEqiJAAVAV2R3pJs5fvVR8kQAJkEA3Cdx2s1j1lKqOXCgA6qC8lkc0OjrHJjp/QOBCAiTQTQLhdPy5myXrTqkoAGquy8T5G4b9a+bO7EiABEigPQTqsZQCoB7ONhc6f4uBf0iABEigFgLR8JjPJNhCmgJgCxyXu+j8XdJkWiRAAl4TMOaTF/bp2bmdWt0LY7IbUdeRFAA1kI5GT99wtH8NoJkFCZAACawTMJoiYJ3J/DsFwBxEVW8IQR0opV8ovkiABEiABJoh0CoRUB8iCoAKWVvnL0/1U4oP9lF8kQAJ9IaA1n7cAbD8RFWKgAeXHwXAAyRuNtD5u+HIVEiABNpIwPx301bjN/hhwysRAcdN27Yt/zr3UQBUQBsX3oFiy78CskySBEigFQTiwbUHdqL7NcUKEQHD4/R9KYd3eRMFgOPapfN3DJTJkQAJtJHAtHGjB7NNtwDuSQPN/lY3buS6AfV+pwBwyNteUGz5OyTKpEiABNpIIJyOmxcARoVb2IkIOMdv9sNugi0ndW0XBYCjGsWFxLC/I5ZMhgRIoMUEfJkDQAV/20HR/mbjt9sbEbDDXue7KQAcIMUFZC8kJNXbCwll50ICJEACSumg+da/wsvEm7oAsPNuwW+3eXf3rWcfgp6V13lx4fwfS38SEqbzBwQuJEACPSeg4z+9IKB1xoF+5lkyWVvTVtefPwVACeZ2ikn2+ZcgyFNJgAQ6R2A28GMa4Fzzr+hX9ve8c5WxvUAUANv5bNwbjQ7fKaPlsb4bj+EOEiABEugZgS8+DAC0kdm84I1+h/MyRg3yJr77+CaOoADISR0XyF4UPpV7XF/mPJWHkwAJkEDXCfzLiwIGfxVx5HJnwLX8xntRhhqMoADIARkXxoHt71+eXjLH+TyUBEiABDpNIA4++FG+734uaIcVAQXPLXFaM6dSAGTkjv6hY+v8lSqiLBVfJEACJNBxArcI/3vS/2+OS7A+sF28JRJoy6kUABlqyl4MRr/HoRzpDwhcSIAESOAhAe2F80ek9vFD23JveWkbfblPK3ZCU2dRAGwhjwtpCOd/g0PY3w8IXEiABEhgIwEd+xH+D+KjjTbm2WG0zBTY6YgvBcCGC8KqvyAW59/pC2BD8bmZBEiABPIR8Of2PxcRACm7jAcQEVBx5FeyamalAFjjjlb/XjQ6eq8Y8l8jw68kQAIksIGAMZ/CafPz/8vvNyx02Wg7UEF3ZwqkAMDVslhw8cisfmj1lxpAskiO7yRAAiTQDwKB+qcXBR3Mygz+21AE8wwR4Wcbdpbe3GQCFACgD8cvrf5zlczql2X+aJzFhQRIgARIwBKYDcb2vek/Jih6+992yzs6SVDvBUC0f/QCjj9SynRS4W2/qrmXBEiABMoS0GOE/2/LpuLmfFNBBMBatgc/UcHMrzbtxv70VgCg1f/YzuhnzB+g39lBHigbFxIgARKojoCOvQj/z8P0Vf6Wd25+gN4JgDvHL+F+zuhX3Y8CUyYBEugDgWn49cqX8L+b2/+219pL8SHbD8m+t+kjeyMApNJsi5+Ov+lrjvmTAAl0hsBMIqiNlwa/72j5Vxb+Xy1fEL9P8lvd3MZvnRcAk/2jX6PR4Q36b64VW/xtvEZpMwmQgJ8EblX8/YUXpgV/1TmGa0/pmcwMW7LozZ/eSQEg6iwaHb2KRoeRNkb6p1zeF9p8rdECEiABEmicgPZo8N/g91pxoDEZjX5p/QyxnRIAcPyPo9GR3M73TSnzBhcEb+kDBC4kQAIk4JxArOU31nmyeROU332c08Bv/eA18i6cL2xufGm9AJAKkFv5okWYn7fzNX5R0QASIIGuE9AX4XQ89aKUgam39X9faOkKaPWtga0UAHD6B0tOP1LJrXwM899fmPxEAiRAAtURiLUvg//QAq9p8F8azcJdAWmJ1b+tFQIADn+YDOY7eo+W/jclD+mh06//amGOJEACJKBs6/+zFyCCuKnW/1Lx29sV4K0AgNM/gLN/h1VG8M8H81mlt7dEnh9JgARIgATqJOBP37/4gjpH/2+ivKf0LFdXwKaE6t5euQCAI19uvUdw6AbrN9m+XFj5/qCVr5SMsmRoX/FFAiRAAj4QsK1/T/r+7a1/ez5QkVvM23hXQGUCYOHMEa5fbr2jv8ZW154KzGsIgXcyOQ/eJay/fJwflWpN5R8SIAESIAEQuFWxPsV74wsajPARg9eNG7JiQNaugJWTGv3iVACgUoZw5hK2/5bcf29D9hsKaCR081KUEw5AZeIvFxIgARIgAU8JzN6E07EfD/0JZiJEfPMb0rB952nlpZrlTABEo6NXSgbnJWF73yomtfDcSAIkQAIkkInAl3Dy8SzTkRUfJA1NpfQL5eXLHEf7T7c+kdAns0sLAKkMCeOrZOIdOn6fape2kAAJkIALAnHwm4tknKSB7mOk46+vMfocftFf+wBvsZQSAFbpSKtf68eLBPlOAiRAAiTQKQJnCP17cdsfHCt8je0+9hkwugLi1+kG+rW1sACQiXiU0fJAhFYoHb+w0xoSIAESaAWBqYoDL6b8tbSC+Ny++//nZSJW/Da0kABAf//5fPY9v0tH60iABEiABIoT0OYUrX8vBv5Fo6ciRBZ3khUvU11nBvGDAYF1ZZ01n1wCAIpmb97fLyP4s+bB40iABEiABFpHQI/Dr1djH8yG7zlQSr9S7XodzEWLt1ZnFgCogKEK4uv5bXveFoiGkQAJkAAJlCZwq2L9vHQqrhLQs3eukqo3Hf3C+k6bqX9/MgkAFOAAzv8G5kOF4S8XEiABEiCB7hKIgxN/Qv+/LOaLaSPvPZXcteCl7TsFwNz5X8N6DvYDBC4kQAIk0G0C5i2c/ycfygj/A7/j24x/ecmYZyjH47xn1XH8VgEAo6FeYhl1iUqowxzmQQIkQAIk0BgBYz6Fkyt/bmELTDf8j6cDArcKAIQupN+FYf/G/huZMQmQAAnURmCqzOCkttx2ZJQ8XMe0Zla97cVRB9H+U+8Gz28UADAW4I13Bu+AzN0kQAIkQAL5Cdwqn/r9h8doeA7e5S+Gx2cY/c5G1T0yMVUAWCNhrEd20hQSIAESIIGqCCT3+/sy29+i67mq0tae7jxDKZc/3SswKlUAqORJS+2ZcAEF4UICJEACJFCEgHkbfr26KHJmJecERlr+iABUknrTicoMgd741gcCAK1/gNdtm3Ch6Upl/iRAAiTQQgL6wqdBf8nEOV3rel67LPTsfG1LY18fCADV2gkXGmPIjEmABEighQTE+X/wZrKfZNxZDxqfWj9GQ/uxDxfMigBABTzjTH8+VAttIAESIIEqCXjm/GXQn9HetIxdkk9NS8+8GAuwIgCU0b+nGsuNJEACJEACHSHgnfNPpplXqj/zzUgUwIPbAu8EwDwkcaD4IgESIAES6CgB75z/ngriDj9WfstlZHTjUYA7AaACw9b/lrriLhIgARJoOYGzcOJRn//wWJy/TDPf14bn0Ha7N3hRWQGA1v9QKXPcoB3MmgRIgARIoCoC2jwPJ5enVSVfKF09k5Z/p53/Ti6m2cmBrABQwV90/jtrigeQAAmQQAsJiPP36T5/IIxGR+cccA4QMu4hmXfHfqn7TyIA1OC3ujNmfiRAAiRAApUSuFW+On9lnlVaci8Sz2qEfoEofCMDIANkjPC/6ncYRvFFAiRAAp0icKvi4IlXM/wBr2350/mDxMqyN599d2VjHV8CNZh5MSFBHYVlHiRAAiTQAwJf4PzDcDr2Ym5/4Y2G5l4UPr1WPXL+Uu7sazNRgECZ4OfsRvJIEiABEiABfwnoMZz/z3D+t77YCOd/oIL4mn3+W2ukkShAAEXGCMDWeuFOEiABEvCeABz+7DScfDjxyvmPjl7B+d+AXs+6mVHi3Ev9UQAIACVjABRfJEACJEACLSRgzCe0+h+Fk49nvliPVv8e+vvfK2Xe+GJTC+yoPQogAqAFXGgiCZAACZDAQwLmbRhdPUGrf/pwXzNbxPmj1X8N59/b28uLk683CkABULymeCYJkAAJNEVABvqh1X/1uikD0vKF81/M68+Qfxqg3dtqjQJQAOyuEB5BAiRAAh4RQKt/cvkjWv3ejPIXONH+02O0/Nnfr4RGmbW+KAAFQJl64rkkQAIkUBeBu75+v1r9UvxodPhOGY0+f9XIhDaqW6/aogAUAN26cFgaEiCB7hGY2hn9kr5+v1r9w+PHcP7S6n+p+LIE3PypJwpAAeCmtpgKCZAACbgmcKuUeWtH+Ps2l//weA+O/x1C/tcoNPv7AcHxsqcGs8oHUYoAmDo2nMmRAAmQAAkUJ7Bw/GE4uXqNvn58L56Y6zPnff0R0mWrHxBWF4ffjH7tMLXUpAJlDAVAKhpuJAESIIFaCcDR2xa/n45/eDy00/myr7+ui2IIsVXpQ5MCpdW/6yoN8yEBEiABEnhA4Ivt459c/uBli9+G++2MfpHSmjPHPqi++w3OPxn9u/M0lxIMVDyQkZtLm/iRBJ9EZKMAABAASURBVEiABEigegL6QskT++SWPs/6+KXskTj+/aMX6Oe/UZzRT5A0sR6gHioTXQH6l2RUKbsBmqha5kkCJNA3Akth/g/P8fv7yTcAcDh7UTKHf4Qu4j9gH6eLB4TdS0VH6NnrilJWgU1Ym1P7zj8kQAIkQAJVEFgP83vX6ILjH945/qTFz3v6q7gS8qaJbhepm7ynZTneCoDw69VYKYSjFF8kQAIkQAKOCHxRanaKMH8Yehrml3LCuTyG4z9HqD9SdPyCpNBa6UmBeV1F+lYASMLh5MNzvOOCxV8uJEACJEACeQkgvI+GlDbP75z+5OMZwvzetfalYJP9o1+j0eENHP+1UuaZbOPqKwHzDELNeUTmTgDYYsfBb/adf0iABEiABHYTkOl5k1b+I7Tyf5CGFCKqF746fTiRIZz+O6zftDH/RAEPsHIpTaCGBAJEkxxnsyIAcNF+lttRHOfB5EiABEig7QRulXX25q39jYwDcfg6lOl5k1b+Z18LCKe/t9TaR5hfyQQ+zluTiq+KCehfXWewIgAkcVGv9gKXL1xJgARIoD8EptbJLxy9TMOrzYlKnP0PibO/ei2/kbax5DEXOP1h4vSP3iPEz9Z+xXVVU/LDaP+p0+mBHwgAKYhc4HLR4zP6tPCXCwmQAAl0m4D81o2VGZzeOXqZhvfr1dh3Z7+olkn4958Q2pfwvvTrR0mI3zh1GIu8+N4QAeO2mz5VAEjR7EUfB0/w2csBLLCLCwmQAAm4IiAh8ZdoLd/AiUZY303CXw7RkpbtrvJwlo7YNbEO/+iVTM8Le43W3/2JDCS8z359gKhvqTMnc4y6dzYvw0YBIEWai4BHircIKr5IgAR6Q0B+YF9qPfgAQfANzjVKnCyc7f7RC+t4h8dyTOVA8GN/YPNDvtHoaOHsI7FLW4dv3iitK5sprvICMoP8BIL49/wnpZ+xVQDIKRABtzKyFZ/PsHIhARIggb4RGCZOFs7WmD+s4w1iiRKYaHQ4FweHCL0fvZrsH/0qDnt9XQcGx763egyiDeLgR0gnfHpt0x0dGjj6G5sf8lXKLJz9cD09fm+OQAM5O7tlc6cAWBQunFyecnDgggbfSYAESMASGCbiQCH0bt5Iv7s47PUVDl3Ewt0Kx/5t9ZjBB+vgFdJJWvRDxRcJpBPYi/afOhEBmQWA2DEfHCjjAmTAjGziSgIkQAIkQAI9JdBQsWPlZM6eXAJAioougU8qDkKl9FjxRQIkQAIkQAIkUC8BRInQjVQ6SpRbAEgpIQJkXMAJugRO8J3RAEDgQgIkQAIk0C8CjZbWwWDAQgJgUWh0CYyTaIDiAEHFFwmQAAmQAAnURuC4bE6lBIBknkQDLuWJV4/sLFqykSsJkAAJkAAJdJpA44UrPTNgaQGwQAAh8FkFSh4usdjEdxIgARIgARIggaoImOCoTNLOBIA1YjbgrIEWBP+QAAmQAAl0mYAfZTPH0fC48GyVTgUAogCfAIWDAgGBCwmQAAmQAAlUTGBPDWbHRfNwKgASI3h7YMKBf0mABEiABLpJwKNSxcXnBHAvAHT8wSM0NIUESIAESIAEukugxJwAzgWAvTVQKXYDKL5IgARIgAS6SMC7MgV/FeoGcC4AEjDmH8k7/5IACZAACZAACVRLYFDoCYHVCIB48A6FZRQAELiQAAmQAAl0iYCXZRlGw+PcUwNXIgDC6RjOn1EALy8TGkUCJEACJNA9AgW6ASoRAJYsowAWA/+QAAmQAAl0h4C/JRnkfkJgZQKAUQB/LxNaRgIkQAIk0DkCB3m7ASoTABYtowAWA/+QAAmQAAl0gYDnZcjZDVCpAEiiALM3niOjeSRAAiRAAiTQAQL5ugEqFQBCM5x8PFOKswMqvkiABEiABFpNoAXG5+oGqFwAWGCxfo73W6xcSIAESIAESIAEqiKQoxugFgFguwLi4KSq8jJdEiABEiABEqiWQFtS/+7nrJbWIgDEGIiAT0obiQTIV64kQAIkQAIkQALOCZjMjwiuTQBIGcOvVxcUAUKCKwmQAAmQQJsItMrWwew4i721CgAxiCJAKHAlARIgARIggYoImCBTN0DtAkCKSxEgFLiSAAmQAAm0g0DbrDR+RgAWGOciQAYGflls4zsJkAAJkAAJkEBpAnvR8PhgVyqNRAAWRkEEjFUsoQp9sdjGdxIgARIgARLwiUArbQlm0sDeanqjAkAsC6fj23Dy4blS5q1850oCJEACJEACJFCSgFE/7UqhcQGwMDCcXL1GNOCRUowGKL5IgARIgAQ8IdBSM7R+jG6AvW3WeyMAxEhEAz7baEAchMqYT7KNKwmQAAmQAAmQQAECg9njbWd5JQAWhkIITMPo6gkjAgsifCcBEiABEmiCQKvzNHrr7YBeCoAFcAiB+4hAHDxR7B5QfJEACZAACZBARgLH247zWgAsDIcQmGL9JN0D4eRSYztvHQQELiRAAiRAAlUSaH3aw2h4PNxUilYIgBTj45RtuzbxaYS7CHE/CZAACZBAtwhseTpgWwXAQc4aEuf/XznPaeLwWzv4UQZAyqr0OLk9Um6RzLuqs9W0lDBQfJEACZAACWQj0I2jvvtxUznaKgA2lSd9uzyF0Jj/m76zpq3rDj0OZJCjrI+kW2O+/iCDH+/WyYeTcHL1uth6eXqXTnT1JJxc/oBVy6ri4AesT5Q2J3cCQ+yTtSYczIYESIAESKAOAmbjnQDdFwBwanbGwTo4K/VFLVrtIjoSJ584XuuElxz6dPzJjmuYjj+rml/I9xbrJ+ESLgSG2Cfr5FJDHCQCQc1OYVoSSVCKEQTFFwmQQH8IdKakMg4gdT6ArgsAhNQHz201ap2328CetuXPVNm7EuAk40Ba2NK6/jFctNq/Xl1YJzsdt85xwu5EIEw+noWTyySSgAjCvTBAdwSElaIoAAIuJEACJOA5gQ3zAXRcAMzewJnBUdvKSVVAdk+2P2jdw/HB2YsjhGMM4eyfh+Ik0ZrPlkS7jwLLuTBAt0QSLZBIQYiuBBFZZygdGOEvFxIgARJoOYFOmb9hPoDuCgC0UMU5O6vEOPgtlHA5nL04QmfptjwhsJiiK+EilEjB5PJHiKO5INAXKNpCfOEjFxIgARIggUYIGJMaAe+qALgP/buhfQZHV3tfvRvT600FnOaC4AOiI5ehFQR2LIEe12sJcyMBEiCBogQ6dt6G5wJ0VACshP5VNDxOVT8Zq3gKJ/Ym47E8bI2AFQTSTTL5cAKOPyTdBRQDa5j4lQRIgASqJvDAD3ZPAKSH/ov3/8fBczix1g3kq/pKKpK+cEy6Cz6coMtAQwycKDuQUpGv4osESMAXAp20I5g9WS9X1wSAhP7hVNaLWfi7hP75VMLC+LafCDEwloGUiAwk4wYg3rafwb0kQAIkQAKFCBj10/p53RIAcXAircz1Qhb8ztB/QXB5T5M6gxi4kImLrBiwYwbUVPFFAiRAArUT6GiGKbfCt1UApISMzVs4EnetdYb+G/kvQB1O5e4NdBHIAEKErLTcTdCILcyUBEiABDpEYC8aHq88GKidAsCYtRH5+iKcXL12V1GOxYQ7w3qVEsSAfQJkEhUwb1F4RgUAgQsJkEB1BDqd8mB2sFy+dgoAHSxFAHTSj7xcqnKfv7gVE+WM4dlKQQggKnD1OpxccqwALwgSIAESKErAqEfLpwbLX9rz+X/+nNt6FsrtZfMvDt5u0do8cpAOk6iIwNJYgSf2aYcV5cNkSYAE+kig42U2qwMBWykA5n3EMve+PKzGXY1pcyqtTXcJMqWqCKCePs0HDXKcQFWQmS4JkEC3CGjdgTEAlVSJvpDWZSVJM9HKCFghMPnwHJGbUCVzCii+SIAESKAIgR6cs/JkwFZGACqopC8q1m6jCRUYySQ3E4AQmKI7KBECnE9gMyjuIQES6DuBu4GAFADySNs4OIIDWRpY2Pfro73lRz1O77oGKATaW5G0nARqJ9CTDIO/KADuqjoOnojTuPvOD50ggDpdGiOgpoovEiABEiABEBj8b/yxS18iAGvzBtiyK6XNcziK9H2Kry4QQP1+srcPJrMLMsrThUplGUigAgK9SdKYfkUA4AQe/vCL8/96xVnmenLVy50jHCjYk8pmMUmABDYTWJoSuC8RALV0z/gtWv4nHPG/+fro6h4RgvOBgo+WroeuFpflIgESyEygVwfKlMB7UuIeCYDBqZIwcBw8gvMfS+G59pMAhMBnO1AQUSAQuMXKhQRIgAT6RMB2A/RGANgf/clHebwvB4T16TLfUlYIwYt5twAF4RZO3EUCXSfQu/INZj2LAPSuhlngLAQgDG/RLXAi3UI4ntEAQOBCAiTQcQLzZwL0JgLQ8epk8UoSQDRgzGhASYg8nQRaSaCPRgd/k1JTAAgFriQAAowGAAIXEiCB7hMwsX0mAAVA96uaJcxJYB4N4J0CObnxcBJoI4Fe2jy/FZACoJe1z0LvIoBoQDKlsDJvdx3L/SRAAiTQMgIcBNiyCqO5DRAIJ1evVRw8Ukrx7hHFFwl0jUB/yxMNjw8YAehv/bPkGQkgGvA5EQGatwtmZMbDSIAEvCewRwHgfR3RQB8IQAQktwuyS8CH6qANJOCEQK8TGcyGFAC9vgJY+LwEbJeANic4j3MGAAIXEiCBlhIwKqQAaGnd0ezmCNzdJaDUl+asYM4kQALlCPT9bP2/KAD6fg2w/IUIoEtgquLgZ6U0nyip+CIBEmgdAWM4CLB1lUaDvSEAESDjAp7DoDOsXEiABFpEgKYqxQgArwISKEkgnFyequTJgiVT4ukkQAIkUBMBrTkIUPFFAg4IhF+vLiACODjQAUsmQQLVE2AOIEABAAhcSMAJAYgAeaDQEyTGOwQAgQsJkIDfBNgF4Hf90LqWEQinY5k0SEQA7xBoWd3R3P4QYEkTAhQACQf+JQFnBOYi4GckSBEACFxIgAT8JEAB4Ge90KqWE4AIuE1uE1QUAS2vS5rfNQIsz4IABcCCBN9JwDEBigDHQJkcCZCAUwIUAE5xMjESWCVAEbDKg99IoGkCzP+eAAXAPQt+IoFKCFAEVIKViZIACZQkQAFQEiBPJ4EsBCgCslDiMSRQNQGmv0yAAmCZBj+TQIUEKAIqhMukSYAEchOgAMiNjCeQQHECFAHF2fFMEihLgOevEqAAWOXBbyRQOQGKgMoRMwMSIIEMBCgAMkDiISTgmsBcBPyGdDltMCBwIYHqCTCHdQIUAOtE+J0EaiIAEbCYNpgioCbmzIYESOCeAAXAPQt+IoHaCVgRoM1p7RkzQxLoGQEW9yEBCoCHTLiFBGolEH69ulDaPK81U2ZGAiTQewIUAL2/BAjABwJWBCh94YMttIEEukeAJUojQAGQRoXbSKABAuHkw3NlzKcGsmaWJEACPSRAAdDDSmeRPSZgBiewboqVCwmQgCMCTCadAAVAOhduJYFGCITT8a2KAxEBvDOgkRpgpiTQHwIUAP2pa5a058ndAAAQAElEQVS0JQQgAj4r3hnQktqimf4ToIWbCFAAbCLD7STQIIFkUKA6U3yRAAmQQEUEKAAqAstkSaAsgXByecpBgWUp8vy+E2D5NxOgANjMhntIoHkCyaBAjgdoviZoAQl0jgAFQOeqlAXqEoHwflBgl4rFspBATQSYzTYCFADb6HAfCXhAACJA5gbgeAAP6oImkECXCFAAdKk2WZbOErDjAZT60tkCsmAkUAEBJrmdAAXAdj7cSwL+EIiDIxjD8QCAwIUESKA8AQqA8gyZAgnUQgBdAVOlZm9qyYyZkEDrCbAAuwhQAOwixP0k4BGBcPLxjLcGelQhNIUEWkyAAqDFlUfTe0rADOTRwewK6Gn1s9jZCPCo3QQoAHYz4hEk4BUBdgV4VR00hgRaS4ACoLVVR8P7TIBdAX2ufZZ9NwEekYUABUAWSjyGBHwkwK4AH2uFNpFAawhQALSmqmgoCawSSLoCzD9Wt/IbCZAACWQjQAGQjROPIgEvCYSTq9cwbIqVCwmQAAnkIkABkAsXDyYBDwnEgdwV4KFhNIkEmiDAPLMSoADISorHkYCnBNAV8EkpPVZ8kQAJkEAOAhQAOWDxUBLwlkCsT2Eb5wYABC79JsDSZydAAZCdFY8kAW8JIAowVYoDAr2tIBpGAv4RmFIA+FcptIgEChHggMBC2HhSpwiwMJkJGEMBkBkWDySBNhDQhg8LakM90UYSaJqADm4ZAWi6Epg/CTgkEH69ukBy6A7AXy4k0DMCLG4eAvEXCoA8vHgsCbSBgDYyILANltJGEiCBBglQADQIn1mTQBUEEAUY85HBVZBlmn4ToHW5CMSDawqAXMR4MAm0hIAZcCxAS6qKZpJAUwQoAJoiz3xJoEIC4XT8iVGACgEzae8I0KDcBD5TAORmxhNIoCUEGAVoSUXRTBKonwAaCbwLoH7szJEE6iGAf3BGAepBzVwaJ0ADchEw5pMczwiAUOBKAl0lwChAV2uW5SKB0gQoAEojZAIk4C8BGwVQ6ou/FtIyEihPgCnkJKDVv+UMCgChwJUEukxAm3ddLh7LRgIkkJdA/E3OoAAQClxJoMMEQs4O2OHaZdGUIoPcBOLvP8s5FABCgSsJdJ7A7I/OF5EFJAESyEqAAiArKR5HAq0nEH8vzwi4bX05WAASWCPAr7kJ3IbTsf0tYAQgNzueQALtI5D8w+tx+yynxSRAAk4JGGNb/5ImBYBQ4EoCfSAQa04P3Id67lUZWdjcBLSmAMgNjSeQQMsJIAow5fTALa9Emk8CpQnM/r9FEowALEjwnQT6QCBQHAzYh3ruSRlZzAIE5ncAyJkUAEKBKwn0hED49UrGAUx7UlwWkwRIYI0AIoF2GmDZTAEgFLiSQL8IiAjoV4lZ2g4SYJEKEFgR/xQABQjyFBJoNYE4YDdAqyuQxpNAUQL6rvUvKVAACAWuJNAjAggBSiuAzwfoUZ13sagsUxEC//N/ls+iAFimwc8k0BsCs/PeFJUFJQESSAgsDQCUDRQAQoErCfSNQDIzYN9KzfJ2hgALUoQAon/sAigCjufcE4iGxweT8JfDaHT0Cut5NDr8htWsrOHT62h09B6rHPNqEv79p/sU+KlpAvghuFVKd30wIMqo+CIBEkgIPOj2YwQgAcO/OwjA6T+GMxdnH6kgvtF68EEp8wbrM5y6h3V10fox9h1jlWPeaP3dn9HoECIBomD/6AXSG66ewG+1E9Ax6rD2XOvMUJ5/UGd+zKsmAsymCAH9n+tnUQCsE+H3OwJw0nuT/aNf4bhv4PSv4czF2Zd03OZYGfMH0osk3UiiCMPjhwLizgp+qIzAbNDlCMAXpc2flbFjwiTQNgI6fvD/QAHQtkqswV5x/OKYxUlrY/6JLA+wVrEgXfNG8pH8JN8qMmGa6QS63Q2gJ2o2uJvzPJ0At7aTAK0uRGA2WOn/lzQoAIQC1zsCcMIHcMg3aO0jdK/qapkjHysErpE/Piu+6iLQ2W6A+AsEjtzuyHEAdV1LzMdnAov/hxUbKQBWcPT7S4S++cT5q5JhflX0JeIDXQ1FT+d5uQl0tRtAK4hY0Fh69Cm+cekAARahEIF/pZ1FAZBGpWfbpNWNEPx72zfffNkPotFTiT40b0kPLEArWVrIXzpX1EX4f+nRp50rIwtEAlkJaLMyAdDiNAqABYmevovzR6sfrW5z7A8C/as/tvTBks5NCjSFsJHwPyrv/tGn+MKl9QRYgEIEUvr/JR0KAKHQ0/Xe+asD5ddrCNt8s8kvQi6tib9/MDjIZfL1p6U/3+W5NvPZ3XZ+IIH+EFgSxKuFpgBY5dGbb3Cwe0nLX/nqaDkYUNXzQmtZHOa8xVxPntXmEi93aXSoXNVSa0PqtLEIAb1R4FMAFOHZ8nPmzj9CMXx1/koFf/lrG8B1b9EbfyRaV9Z4gC6txGqIGwqABAX/9pVAyv3/CxQUAAsSfXrXs/cort8tbIZuUUU1Llt+JGq0wklWcPrrYmY5IuAkDybSBAHmWYjAljt9KAAKEW3vSXaEvZ2mt71loOUVENgwSKiCnKpN0ph154/89H/iDxcS6B8B/D9AEMudPqllpwBIxdLNjdH+02Ol9CvVjpf0S7fD0g5YiR8JCZW3v6Ws1b8fVkf8Xw+3cUvbCNDeAgR2TPRFAVCAaRtPsf3+Rp+3xHYZtbpRtbakDG00M3WykFYVJB5I91arTKaxJFAZgR13+FAAVEbes4SD+DUs8rvfHwYmS4cGpCUFcvYXQu5AHq28WOW7s8Tb//CcW0QyUiJH8TdnjJhQQwSYbQEC0pBK+X+4T4kC4J5FZz/BScjUvi9bU8AdYavWlMOxodHo6FwF8Y3W3/25WOV7NDo0WG8i7J+EvxyivosJvcXseY7tri+5DcKRA0rrqwLm5BOBnU/7pADwqbqqskXP2hL6FwK34dernReuHNinNXHq5tmWMh8oZZ5pPfgAUfBNxADOebzl+Ae70HqWcQCyPtjXig0Ujq2opiJG8pwCBDJE9CgACnBt0ylwAgeqVaP+Z3wOQNoFFsxO0zZv3maeQQhcR6PDm8n+UY6plfXWkOHm/DzYs+F2JwiblDsDPLCXJpBAdQQyNaQoAKqrAD9SDszvfhiSyYov4eTjWaYje3eQflGwyAfamH9G4dNriMEMEYG4rXcCyONOOXC04EXi92m0Lj8BnUn0UgDkJ9uaM/CDj75gc9wag7V51xpbNxga7T/dFqbfcNb2zfM0UZfbj9u6V6JAQSwRgXfJdbHh6KVZ9DYc4enmnd1c7e3a8JQ4zfKYQMbuMAoAj+uwtGmDmTj/co6jtBHZE0Df/0X2oz090gRHzi0z+rXDNF/aroHh8UFamq0Nl8ffj9PKc7fNGAqAOxjt+uC9tcZkam3XWo4N3WHrNlAArBPp0nejWxT+19t/wFtTL+YxWtgZQu3ZCjRv/ctdHNlOyHbUgRUBm6MVbesGkPA/HXy2uudRrgkE6g/XSZZLT48h5DN1h1EAlCPt7dlwQtLyT23l+Wn0//zpp13ZrQJzcfx7ajAT9tlP3Hak0S5b/8s57Smjz+cCY3k7PusJ/rRo2Rn+V0rr9g5uVH1+taDsye2zmRxuLaXR8T+z5kMBkJVU244bzMQZtcfq+Pv2h/+DOAn/G/XIBfi5c3bd+l81LVUEtGwg4K7wvy2x+W/7xj8k4JgAWttTZYwvAjPT6P8FAgqABYmuvVfRF10VI/Sh4Z/IHwVdvJzHyan6fyXvxf8imiAt9HoGRa6LAK1uilte95l6jGuH4f+6sdeUn/fZ4LfL2qjTnkFh99T8R+fqSqUAqLl66svOtCcC0IHwLBy2dLckrXVj5HO5qk7u+3fXlbDLGqPfoQyJ/bNBexxqxtHOu4rP/SRQiIAOkv8VX0RzrDOH/6W8gfzh2kkCyY95K4rWgfBsMDu5Q611KfZwxHD8uuh9/3dm5Pywp4LYPkgHLWpfwpm7inCrMo523pUQ9/tIoA02/c//sVb6IZqn+N/NdUcCBYCtvW79gQMp3wLtFpIaSqMPlzIpJQBUYM6RFkQA/ta7HESjp8lMjMbk+iGp18y73C7wg9eFrqO7AvFDywjE31uxjOvQvjdsfa7wv9hKASAUurYOZuUcUNd4VFyeueByIrqQFrpuzHwsQcWGpyavX8CGPaUD/x1rHHh2+1UqUG4sSKAlp907/qZFcxzkCv8L30D+cO0YAUej0DtGpbriuJxuOYil9V+drbtTRlfA7FQpz+8EwI8tWl1J/+vuMvEIEqiCgMw/cS+UF+MBqshpd5oS/r8XI7uPt0dQAFgM/NMsgeA/ms2/eO62tawettixPXdEYB5+9yB6o19AAHwrTqWGMwOVu7VTg1XMwhmBNiSk/3PVyvl4gNWNNX2bFYqGUQDUVD31ZhP8rd78yuZmPHB6BcuwebrlvTwpJoJBv8pzToXHwvbB/64w/bJJTzsxbXRZCjy/YQJrDn8+HqARowrOo0IB0EhtVZypidvmUA8SB1gxlyqSdzDdMsqOsHtsR+BXYWLBNP+fgufVcFqx1k4NhjELRwRakUz8/fpA2Ya6pHThwbAUAK240npgpMt+9JpwwXE/Rla5Q/04Z3UJjEz445toKz2Z0WohnX27VQVbO84sYEIkAALhdLzS547vzQiAWBcK/6MIigJAKHD1gIB5BoeK0LMHpmQ1Qc9eZz1003HJdL/m2ab9DW4XQXI/wKlBQ1azNv/AD62Hdq1ayW9lCLTgXGPWW/8Lo+t+kJYMRFwRIgtDsrxTAGShxGPqIZDMfldPXiVzgVgZKq0lApCeUoYHAiGNA2X0u/QEvNjqnyCLB03fJeFFxdCIhglsmr3UmP9bq2XaRg8LZ0kBUBgdT3RPwN6DXj6k7t6whykGZnvrf8etmHD+eyqIr5Gwf04WRvm5aOnrbCbM6ieQTlrVikJp82eqnZuEQerBpTeWngmTAqB0HTABhwT24BTPrXN0mKjrpGAfWv5me9g+HohzT80a50s5ZT+dfyqhDRtjncxSuGE3N5NAbQRmgw1dALVOay6CuFR3GAVAbVdMjRnVq0JdF+xAJVPhuk7XXXpl+/6TQX/tiHS4o1Y2pTP0/bP1X5ai9+e3wkDpd093vFuEv/OSOZgJkwLAea34kGCtKrSCApvj+aQ4FaRdLkm03h9v7fvfkXw0OkIf9o7owY40erj7VsVBydZ/0LK5MXpYy+0p8r8aN9WYTy4EMQVA4zVZhQHxtypSrTdN/SoZIV9vrjtzK9H6p/PfSXfDAQ5G/rdvbowNLLq9uRWl29T/D+PhlDd0DWCnyyVQhW/9WzaDAmCZRlc+NzkjlUuGRp/7JAKi0S8v1baR/1vKTue/Bc72XWj9D95tPyTDXq2HGY7iISSwm8DG/v+7U9O7B+52l/4gM2GOS6eCBCgAAKGDS3f6Sj0RAQj97yk12D7yP+VCkvOi0eGNUgz7p+DJsGn2Bq0qFz+oFAAZaDd7SCtyKlZfowAAEABJREFU39z/vzDfmML35S+S2PquTcnusPvUKQDuWXTmE34wuyMApFZEBIwOy7cCJa2iazJwDyIgWwKog09w/gcqiCOcwQF/gFBgmYaTj2cFzuMpJFARAeOk5V3COGn9X5Q4f+VUCoAVHB36Ykw9fVH1IXspLWk41dpbcsjzcd4WvO26CGK0/FVm0aD4WiUQB89XN/Bblwm0omzxYPczO3RQXQPMYetfeAfyh2sHCVR5ETaHS1rUN3Cux3WZAOcv9+yf584PUYvc5/CEJQJ6LFGUpQ2FP6IOIeAKn84TSWBB4BbXZIbwfvxfixMcv5ee+GfdHgqAdSJd+a7j9Jmq2l++PWX0+yh8eo0f9upD60H8Gshqjzogzz4vtyrWp30G0L+yt6HEuuHwv4O7YdYwUwCsAenM190jVdtdVBmNjxB7NDqqbObAeaThZbtBtdF6+0PnLow6mFHAtfEy8M1mHX/IZJJWMu4n06E5DoIoHrzLcXymQykAMmFq30EIVckPqIvR054X3jxTQfxtLgScRQQQXZBIQ/7Qv+e0WmDel3ByJVEXd6Ya/aO7xJhSFQRakWbWRtVsIL+9jotkRbHz33MKAMfV5FdyTYes6qRhhcCNdA1M9o9+tQ68TPZ8UE8ZesXPjYPfi5+84UxjnAnDDTlwc9cJGPMJjSrnDjgjtlsVu2/9S94UAEKhq2t3xwFsrjF0DWhj/plEBQ5vov2jFxADuRyARBOQQa5zcDyX8gRkvn/3d6/gmihvGlOojkALUs4a/k+K4joCUPqhP4lZD/9SADxk0p0ts0HDg1YaR3mgjPkDYuAmGh0arHg/Oo9GR68m4S+Hk/DvP62vIhgUJ+1pouK+qNLz/T80G+KPdwA8xMIteQnE32f+LUWkwK0AcPDQn03FpQDYRKYD23Eh3sIBum9RtZcNWvXmGRz8G60HH7T+7s/1FbyczLHdXkQNWR4Hv9nr1XX2HADomqjz9FqQoMz+59apZy60eYv/i8rypgDIXBEtPTBf6KqlhaTZ7SZgf+Qy3F9doJQcAFgAGk9ZJTArMhjYxXiBW1VR3/+ifBQACxJdfY+/v+hq0ViuThBwP+p/FQu7AFZ5ePatBebkCP/flcbJ8wDMP9D6dyEk7sxa/0ABsE6kY9+TC6hPdwN0rAK7XRy0cIKjiouIbp+Kc2DyXSbQVPh/6vx22JRaogBIgdK5TewG6FyVdqJA2jyHQK2sfzMaHtP5e36h+G9eofB/+WI5nvN/k0EUAJvIdGh7+PVKugEq+6HtECoWpT4CZ7guM4+sLmTWYEYBUAgcT7ojUCT8f3dy4Q9On/i3zQoKgG10OrXP/L+dKg4L02YC6Pe/rH6ufxP83GZI3bfd9xLaB1LV33CKg+d1kaEAqIt00/lUPJq06eIx/9YQkH7/ehyzifkMgNZcFh4a2kTXaTLjYG23blMAeHjdVWES+lpvldLSFaD4IoHGCMTBk+RarNaCaHi8pzgDYLWQS6bu+em36KKq//fSDN7UyYUCoE7aTecV61ovrqaLy/w9I5AM+qvmfv/1og5mx+ub+J0EshPQ1Y5PSTVEy5S/tbX+xQQKAKHQkxUtL/Rn6fpVbU/4spjbCODHLRmMuu0gd/tMUPXthe5s7WVKnhc61uVmBNUBfmtzlRFdY7r2BlqQy0Qe3H4CjAK0vw5bVwI4/8mH2gY2JXgMIwAJCP7NT2CKxlLJSFX8X/mytZP+5BUN+bJIOZoCIAVKlzfhwsZFxihAl+vYs7J9UbGufsT/UqEj3v+/RMPPj35bNSvX+s9fuFom/UkziwIgjUrXtyU/yLddLybL1zgBOP/gZ4jOeq+1IP6t8ZLTgPYSqHv69Bpv+1uvFAqAdSI9+J78IJt/9KCoLGJzBNCnGVTzhL/dZeL8/7sZNXiEz1mju2o6rlGw6jF+j2sd+LdMnwJgmUaPPs/nmUZ3QI8KzaLWRUCcv9zuV7IfNb+5CP/Lvf+cATA/Op4hBGL9T3mracX/ia55bMxqySgAVnn061uDoad+ge5VafGjZu/1r935W8rBXxz8Z0H4+8djy+TBP45a48F/7C7n7A1a/zVGGx5aRAHwkElvtuDik4v9rDcFZkGrJtCs87elG7D/33Lgn9wEtHmX+5xNJ5h4b9Ou+fYv4eRj47+9FADz2ujtWxzIvafsCujtBeCs4LcqmeWvmZY/ioHwv/T9M/wPFv4u3lpW78x/cfC7DyQoAHyohQZtQBRAfrgb7YdqsPjM2g0BuYYa6fNfMT8wbP2vAOGX7ATqHBSta5/xbxMHCoBNZHq0HSIAXQHmbY+KzKK6I+CF80frHyFX88xdsZhSFQS8TTMenNdkG/5fdK3zYmwrFwXANjo92mfvCjAGQqBHhWZRyxLAj1mDA/6Wrefc/8s0+DkXAdsir6cbNHkeRqMD/5bRUAAs0+j7ZzM4AYJ6/hGQEZdWE5BJfh4hetRYn/8KvVgx/L8CxMcvntpU2/Toehx+vRr7RIECwKfaaNgW/JhLi05EgDcKtWEkzD6dgDh/meHPC7GI8P9jpfXjdFO5lQS2EEDUE7977q9jrdEltZIvflu1d2OtKABW6ohf8M/wWcWBiADCIIEUAvoC14c4f39EYmC8GFGdAoub7gnc3n/06JMZyF1QVRi0ejeKZ6H/RYEpABYk+H5HACLgk8IFe7eBH0ggIXAWTj48x/XhjfNH63+olOHkP0n9ePoXolEpb64ZtXglrf9Pi68Vvp/5FvpflJUCYEGC7ysEcMFeUASsIOnzl1u5FsLJpTejl+8qI4jZ+r+D4eUHCX2/UUpBqCm/XtW1/pfLOUXErKoow3I+hT5TABTC1o+TKAL6Uc87Sokf8OCJvRZ2HNjQbrb+GwKfLVvzDzWYrYbDs51Y9VFTRLIqaf0nUam5+XHgVcRsbtXdGwXAHQp+SCNgf/i1kTEBt2n7ua3DBBAiReslxA+lHyP911BH+0/F+fvXslyzs8dfk+fcG/XIOwbaVNkqX1yTZ/jfqURkuOJJAeCKZIfTgQgYwxE8QREpAgChH4t5G0ZXMrufv3UeK4b/fb4Y0fq15hn1k333588X/KZdVGyO16H/RdkpABYk+L6VAJSs3B0QKmkVbj2SO1tOIAn5T65e+1wOhFkPeOufxzWE3wn8ZiStX60PvLK0jnn44+AE5fdXPM8rhAJgDoJvuwnIBS2tQhzZ+FOsYAMX1wTwo41Ij0zuk/xwu07fZXq89c8lTfdpmYG95x1CTcLh6/fEu88va4q4xvE7VvX1/Rl5eNltto6JAmCdCL+vEMA/8N4k/PtP0ejoVRQ+vY5Gh99wwEusXLpDAC2V2amIO/xwTX0vFq7Jx0oZzvvvbUWh+2g6Tq6jweyxV2bWMPIf/0P4f/Kq1BuNoQDYiKafO6yz3z96EY2O3kejw0gF8Tetv/sTP7hv5iFXf9R8P6vIdallVr8n4eTjmeuEK0sviM8rS5sJlyUwVfHg3V0iRv9497npD/W0/psuZa78KQBy4erewdbh37fujXX2xvwBh88R1t2r7rUSoaU2ufwRLZZWhCvF+Gj/qbT8JawsX7n6RiAOVm97M8af/v8aWv++VccueygAdhHq4P5J+MthNDo6jxDOtw5fmUXrvoOlZZEeEEBLSMVBGHo+0G/dboT+95TRr9e387s3BB7e9qY1umt8sE+PIXSr7vv3oaC5bKAAyIWr3Qej9XQMpx9pPfigkj5UhvPbXaV5rUffZHv6+h8ULpjJTIRs/T8A48UGhP6DN8uWQLA9Xv7e6OdYy7XTqAk+Zk4B4GOtVGXTbDBVxiSDc6rKg+l6SkDLQ3zQ6m9RX/8SSTgTiFX9YmkTP/pEQJtTtLAhMJeMCuKjpW9NfpTIBH/3UmqAAiAFSlc34R/0s4z0lnndUcbVf1Zs4NJBAkm4/5FvD/HJTTpp/UME5D6TJ1ROAOH11OfcKx/C/7cqXo1MKL7uCFAA3KHozwc7Cxb6gFHi9oz8hrFcchGYQuidiOAT4ZfrTM8ORusfYX/N1r9n9TI3Bw5W23v+59/tG+pMxJoHAwBnb3D9s7Fja+XhHwqAh0x6sUX+KUJ5upsVAggP96LUvSikOP7nqNsQQm/ciRLr2TnKIQ4Fb1y8IqDN6qj/hXGD2ePFxwbfp626vbUBUBQADUD3KUsIAfyTfHiuKAR8qpYitqCVY2/rE8df9TznRewrdI4MXFXejCQvVIQOn7Qx9K+UCZrv/4+DB5GJDldGoaJRABTC1r2TUoQAHEr3ytnBEk3xa/tWBFzYstv6dtWFDSMb/W7XcdzfCIFbFT8M/d9bYprt/zfmE37TeNvffYWkfqIASMXS3434p1mKCJi3IAEHg79cfCMwRR9/EuqH40e9dU+wJQP/hr6Bpz0gsOVhNxBuUmey4sBGlls1fxZBI7m3KFMKgBZVVp2mikORFmU4uQzhaE6U0t3oT1Ytf6Flg/pIHP/Xq86E+tdrJXEi+tX6dn73gQC6mqbjza3rwexxs1aaf+D3a9qsDe3InQKgHfXUqJUymCycfDhRdpwAowINVAZa9zq5jz+6eoL66Kzjv2MbxO/vPvODTwS+hIg4bTWo2f7/3fZtNb5fOykA+lXfpUorqlr++UOJCsTBIyQmtxFSaQNERcsXae2L8IIAk9HWvWAdjZ7KjHIe3EJWUa22N9lbXIsZBvc12P8fB7+3F2/9llMA1M+8EzlCDHyGEDjFGuJHAWLATtP6pROFa7YQcPKIsiDaArY/SmsfrBEBaNaounJH6B+OXzP0XxfwPPkkt/zh+tx8EupPBv81dcumzPi3uWtis9m93UMB0Nuqd1dwOCiIgY9n4rAUHJdttSZjBnrjuErSlB/VM7B7BIZhiBArmMq2ksm263Q4jz3FR/16Wmn6AmJ0vNO4ID7aeUw1B0h0QiJH1aTe0VQpADpasU0VSxwXfiguELI+CSeXP8CpPYEt7CoAhLVFoiVLTv/yFOw+rx3Tr69B/BoFRgQAf7n4ROCLyv4wneNGDE+iE2xw5IRPAZATGA/PRwBO7ROEwKKrQO4oeK76GR3Aj5O+sNERREnA5EesdPoqeaH1L6Hjl8k3/vWIgLSsf8P/Ma7f7VahDg+UUg3c/qfHaHTsjk4ovtYJUACsE+H3ygjgR2SKf9S06IC0hivLt6GEEcLX+FGanSIKIqH9HxAVeW7LPx1jX0NWeZgtHMceQv8c9e9h3UCwZhepQfxbA0WAQNFoVDSQcweypADoQCW2tQgQBIvowI9wkhIdOFHKvFVyr7tSO1scyp/XNLEZtmtjb5dE6x59+R/QDfJRBib1O7S/q56C+BqHNDVwDFlz2UDgTATrhn1pm4/TNla6jaH/UngpAErh48muCEAMSHRgHMoAOLnXPRk/IHcYPLGiQKmzxMmq5lrPIkxkFZGibMv+CYQLWvaXoX3qntj+9WosZVF8ZSIQjY7OcSD7/QHBr0Xjf/HyNKtNiOJIHV1Amr8AABAASURBVNYc/oeN+H/LaiOPe0iAAuAhE27xhIA4UqyIEly9DieXp4mTvQzxWcPxJuIgDuYCAa1vcczioNNWpRbdDLdWSKQeoy8SsYG00LJAHuLgZRUnr23+VpyIPbZlL/ONtylS4UnNJmZE+0+fgTfW5Dv/ekNABv3lC6vb8H+t9t+qmKH/ssQpAMoS5PmNEIAwmGIVBzwXCOKUsYqDTlsnlzLoTkM8/HDnyNePm3x4HkorXtavVxd36U/HdPKOa9m2GPmgH8dUnSQHxxpkGvS3ltvx2vdqv0Kg4/+T/5clKVMAlATI00mABPIRgPPfmw/6Y79/PnTVH5041lxjVlCfNvxfvXF3OcjYhPHdN34oTIACoDA6nkgCJJCXAJyFOH8Z9Fdzf3FeS/t4vHkbFulTrzf8/yVEd2Afa6eKMlMAVEGVaZIACaQTCAwH/aWTaXirvgjR9VXQiGOlCp6Z7zTbPZHvFB69jQAFwDY63EcCJOCMQDLi39TbV+zM+k4nhFb1h3yD/uY4ENGRCZzqieZoc4p+/1zdE3Mz+baBAAXABjDcTAIk4I5A8oQ/wxH/7pC6SumLioOfCycWGDv5T+HzM5+oZba/i8yH88BMBCgAMmHiQSRAAkUJJLf76VdFz+d5lRGQkPrPaFUXGk2P1v9eTbdxTnnLXzXXAAVANVyZKgmQAAhY52/0OT5y8YuAOP8nRZ2/LcpgNu/Osd+q+iN2npSysyrLOpAuBUAHKpFFIAEfCdD5+1grc5viQJx/uf50o3+fp1bdG/v9q2OLlCkAAIELCZCAWwJ0/m55Ok2twL3+6/kj/C/3/suq1ve5+64vwq9X7Pd3B/RBShQAD5BwAwmQQBkCrXL+MiW0PNehXQ+fKl494vxdONXq7/0vfGdCcTj9O5MCoH91zhKTQGUEWuL8ZdDbmYqDUKaFVmogI9n3KoPiTcJ2oh9XLer5HR2VFE76/YvfmVCJSd1MlAKgm/XKUpFA7QS8d/7S2pcW8OTyh3ByKfeUT6PR4TuAqjiUjRwaXxBOLz7Rz4r1tp6Vqk4wJeMTRKQpvqolQAFQLV+mTgK9IGCdgp+j/cWR3LX2l/uUrc1KvVSdf4nzLzbRTyqaWEnExO5y/kcE2nRcbnCic6O6myAFQHfrliUjgVoIRKOjc+WX84fT1xdKmxO09O9a+8sw7CC2XjyN0K3zB7eh0lpm/1vG6eqzPOTnwlViTGc3AQqA3Yx4BAmQwAYC1vkrX2b402M4/ee2b18e7bzhwTZwYnv9eBqhvgjBYUPVFdscmNf3J7r8JLZenrpMkWntJkABsJsRjyABElgjIE40Gh3eqOad/xclo/jjAC39DycS4t85aUzyQKLhWpE69lUcqsOwP+hInVdU319UrOn8wbjuhQKgbuLMjwRaTgCOYIgWtDzSt6nBcwunHyLE/2M4+Xi20+nPmc+fSVDHDHbzHJt4c+/8bSmC2YqTttvK/5kiYlN4OuLy2fc7BQqAftc/S08CuQjA+T+G80fLX9Xs/O/C+2jpXy6c/lTleFnblX6V45QWHlqR87ck9Av75u7PrYqDk6zizV22TGlBgAJgQYLvJEACWwlE+0cv4Pyl5V/dLWD3FiwG8kmfPpx+xvD+/fkrn+D8JWrxfmVj575U5/znd0ws1bsDeBzx7wBiuSQoAMrx49kk0HkCcJ57kR3pb/6ouLAI7Su5Ze8JQvvi9J9n6tNX219iP4SLOH+3Dmx7tvXuFWfqesDfcgmMfr38tfRnsXfDIM3SaTOBzAQoADKj4oEk0D8CcJ4HcJ5o9Vcy0h8hfH2htDlBKBgOX0L7doKeT05JJ4P+au6ycFqC7YklzvRi+0HF96L1L2MmVgZNFk8NZ1ZsL3LgkpEABUBGUDyMBPpGwP7wBzGcv3LlPCWsv3Sr3mUot6mhlT+uqh/YRi6UEQemOvmqw5nG6nd37GanqO/KxIo7O/uREgVAP+qZpSSBXAQimSLX6LJh81sl0++qpJU/D+ufiAOAw0frP5dJuQ+ej/ivcs763DY5POEWUZMnwtJhmg+SshEgrdcm/nlwWMYNMkbh41nGg3lYDQQoAGqAzCxIoC0E8IM/hPOXUf5FpsgVp2778OGcJKT/gzxsZ9HKr5MBohdw/LqrI/4T5z8du+0qSaugwDhq/YvzdzsvQZq53JaPAAVAPl48mgQ6SwDOX/r7pdWfLeRvW/fm7bwPH+F8CelfnqJ1/wkrwv3NoLLO3+jzZnKvPNcvKnlYTuXz5eN6QL+/gZBaLVP+b3T++ZnVcwYFQD2cmQsJeE1gfouftPzTnP80CeVbZy+35T1COF8nrfur1whDSx++tP4bLyOc1oHq7hz/4vxl0pzKnb+tSD07t++l/tD5l8JX8ckUABUDZvIk4DuBxGmaN4mT1xdKWUcvI/PldjwNZx8uOfsLtO7rcUA5wdlyJIMWO3i7nzjSyx/BvpbIClg+Tn/oT55KEZsZ9s9DrO5jKQDqJs78SMAzAnAqn+Hk7/vrJ3et+ur7mB2xgMPaU0Es3RcddP6zUxlH4QhVtmT07HW2Azcdpd0/iGhTVtxemAAFQGF0PJEESMAHAnPnL7cros/aB4uc2XAr4yvkWQfOUsyQEHhubP1nOB2H0PkDQisWCoBWVBONJAES2EhAz6TlnzZ2YeMpLdiRjPRvYra8Mq1/bZ7XHq1oQWX6aiIFgK81Q7tIgAS2EkBLdS+SKYqd3ae+Nbs6d8pgv1C6ZurMVPIC0y2tfzliyyrO/+vVxZYjuMszAhQAnlUIzSEBEthNAI5qD33+CPu7uE1td341HnEWTuob7PegXEVb/3T+D1C2YQMFQBtqiTaSAAncEbh3/qpLYf95f//lqWroBa5bW/8bzaLz34jG9x0UAL7XEO0jARK4IwAnNW/5qy45fwn5P5L5FFSTr/ytfxmnIHYz7N9kvZXImwKgBDyeSgIkUB+Bbjp/faHiQCb3aXQiJTt74taxFA/qeQq7nzQxTuGBJdxQmAAFQGF0PJEESKAuAh10/hLytyPm4URv6+KYlo9lm2/2xCRiMR17OSFUWhm5LZ0ABUA6F24lARLwhIB1UMkMf10J+4sDrfxJfpmrL4hl0p+tEyjdpSXPf0giFo2Kljt7+KEUAQqAUvh4MgmQQJUEOuj85WmJEvL3ovUMvjJ5UsYnP+oLOyX0dEznX+VFX2PaFAA1wmZWJEAC2QnAOe0lt/qpLrT8kz7ziX1aoj8ONNMDfxRe5i0n+AGGji0UAB2rUBaHBLpAoFvO3w70e4S+fq+erRDtPz3O9MAfuc1vciXdBF24tFiGJQIUAEsw+JEESKB5AnD+B2j5b3o0cfMGZrfgNpnL/8NzOP/b7KfVdOTugX/2Nr+Qs/vVVCH1Z0MBUD9z5kgCJLCBwNz5X2O39E3jra2LHqs4COE8xz6WIBo9fQO7tjGWgYqNTEcMu7jURIACoCbQzIYESGA7AYSkn81b/tlGpG9Prqm9aOnP5PG9J162+kEFIguOX7/Axw2LvrifjnjDIdzcCQIUAJ2oRhaCBNpNINo/eqGMPm93KbRM6hOGk49nXpcjMO9gX7rIsv39H55jP5ceEKAA6EEls4gk4DMB+0Q/Y/7w2cYdtk1VHDyRUfK+tvoX9iPKcqyUwbrYcvcuZXgwre/dXn7oJAEKgE5WKwtFAv4TQCh6D87/PRzSM/+t3WSh3B53KX3lXo3wT7NWeKdGWZLJfeQuBS/mJkiznduqIUABUA1XpkoCJLCFgHVGdna/1NboljM92ZU4TYT7W3R7XGDOQW899H+2eXIfHM2l0wQoADpdvSwcCfhHAM6/zbf53dpb+6IreRBOow/wyVOzKaH/26Tb4vI0Tzo8tlsEKAC6VZ8sDQl4TQCO6JmyLX81VO163aKr4i2cpre39m3CCcG1txr618ktitPx1m6LTelxe3cIUAB0py5ZEhLwmkA0Onw3d0TrYWiv7VZKy+j+R+Hk6rXvg/xU2ut+1P+tUn7fophmPrdVR4ACoDq2TJkESAAE0AIdwvnf4GPGh87gSB+WpJ8fjt/O5NeacP8yOrB/jMiFDLKUiX1Qlqy3KC6nws9dJUAB0NWaZblIwAMC1gEFsTj/Nj3QZ4pQ/5P54LjWjowH+z10t5xDALwNJ5c/InrRShHjwWXcWRMoADpbtSwYCTRLIBodvYIDkml92xLynyptnsNZtuK2vp21G/z1DELmJETXxc5j1w7g134QoADoRz2zlCRQGwFpecL5y/39Mt98bfmWyOje8XfpwTfx9xdo9bc2glGiPnlqRgIUABlB8TASIIHdBOD857f4teL+/m46/nk1wfnfzj/mfOPhfSFAAdCXmmY5SaBiAvNb/KS/3/db/Drt+CuuZibfIQIUAB2qTBaFBJoggFZ/MqWv/w/zoePPcIHwkP4QoADoT12zpCTgnABa/ccqiCOV/oAZ5/kVSlBu51sM7utSH38hGDyJBO4JUADcs+AnEiCBjASWWv3vcYqno/ztBD7J7Xx0/KimLAuP6RMBCoA+1TbLSgIOCHje6r9FNCKZsndiJ/DhdLcO6pxJdJMABUA365WlIgHnBDxv9X+Z38P/g9z3Hk7HU+cAepAgi9gvAhQA/apvlpYEChHwt9U/D/PLTHcM8xeqW57UXwIUAP2te5acBHYS8LTVb1v7Kg7Q2meYf2clZj6AB/aNAAVA32qc5SWBjATmrf4b9KkfZzylysMkpH8Gpx+G89Y+wvzo768yS6ZNAt0mQAHQ7fpl6UggNwG0+g+i8Om1MlpG+Dc8qQ9C/NqcwOmL4z+F0xchkLtMPGE3AR7RPwIUAP2rc5aYBFIJwPHvRaPDdyqIb5TWj1MPqn4jWvV6LAP60NpPQvxfr8bVZ8scSKB/BCgA+lfnLDEJPCAQ7R+9gOOPsOMl1roXcfoXcPrS0henfxJ+vZIH2WB73ab0NT+Wu48EKAD6WOssMwnMCaDV/xit/htlzB/YVOeEPgjl62Wn/xxOfwwbuJAACdREgAKgJtDMhgR8IgDHP4xGR+do9V/DrgOs1S8yJa8yMknPo6RP/wOdfvXUM+XAg/pJgAKgn/XOUveYABz/Kzj+G6XMs4oxfEH6MnL/CRy+DqMrvF+9Dqfjz9jOhQRIoGECFAANVwCzJ4G6CEz2j36NRofo5zdvkGcV4X6E9dWZ9OUnA/guf4Tjl5H7nxRfHhOgaX0lQAHQ15pnuXtDYOH4tTH/RKFd3dZ3qxYhfW1O4PDlNj1ZT6UvH618DuADbC4k4DMBCgCfa4e2kUAJAg4df5qz/+EupP/1agyHL63/Etby1KYIMN/+EqAA6G/ds+QdJVDK8dtWvb5QMljvvmVPZ9/Ra4XF6jcBCoB+1z9L3yECmR1/4uTHcyf/HOH7J1h/QH/9fKDeh+fh5Or1PJTPln2HrpGHReGWPhOgAOhz7bPsnSCw5Pj/QL/8FKsMujuzDl7NTuHcxcHLuuzkT+b750sQAAAATklEQVROXibc+YQQPvvsO3E1sBAkkJ0ABUB2VjySBLwjIPfz65m+DCeXMgDvB9svb2+3uzwNpRU/+XgG5y4OXlY6ee9qsFmDmHu/Cfz/AAAA///a5byPAAAABklEQVQDAIP6x3O8auWyAAAAAElFTkSuQmCC;" parent="4C4a_T4golNSF8rx9o6t-85" vertex="1">
          <mxGeometry x="19.03" y="5.560000000000002" width="81.94" height="81.94" as="geometry" />
        </mxCell>
        <mxCell id="4C4a_T4golNSF8rx9o6t-93" value="LLM" style="rounded=0;whiteSpace=wrap;html=1;" parent="1" vertex="1">
          <mxGeometry x="-81.25" y="290" width="120" height="60" as="geometry" />
        </mxCell>
        <mxCell id="4C4a_T4golNSF8rx9o6t-95" style="edgeStyle=orthogonalEdgeStyle;rounded=0;orthogonalLoop=1;jettySize=auto;html=1;entryX=0;entryY=0.25;entryDx=0;entryDy=0;" parent="1" source="4C4a_T4golNSF8rx9o6t-82" target="4C4a_T4golNSF8rx9o6t-38" edge="1">
          <mxGeometry relative="1" as="geometry" />
        </mxCell>
        <mxCell id="4C4a_T4golNSF8rx9o6t-128" value="Get context from user prompt" style="edgeLabel;html=1;align=center;verticalAlign=middle;resizable=0;points=[];" parent="4C4a_T4golNSF8rx9o6t-95" vertex="1" connectable="0">
          <mxGeometry x="-0.3327" y="-1" relative="1" as="geometry">
            <mxPoint x="23" y="-1" as="offset" />
          </mxGeometry>
        </mxCell>
        <mxCell id="4C4a_T4golNSF8rx9o6t-117" value="" style="group" parent="1" vertex="1" connectable="0">
          <mxGeometry x="-390" y="20" width="146" height="420" as="geometry" />
        </mxCell>
        <mxCell id="4C4a_T4golNSF8rx9o6t-112" value="" style="rounded=0;whiteSpace=wrap;html=1;" parent="4C4a_T4golNSF8rx9o6t-117" vertex="1">
          <mxGeometry width="146" height="420" as="geometry" />
        </mxCell>
        <mxCell id="4C4a_T4golNSF8rx9o6t-113" value="" style="group" parent="4C4a_T4golNSF8rx9o6t-117" vertex="1" connectable="0">
          <mxGeometry x="16" y="30" width="110.00000000000001" height="116.66666666666669" as="geometry" />
        </mxCell>
        <mxCell id="4C4a_T4golNSF8rx9o6t-98" value="" style="rounded=0;whiteSpace=wrap;html=1;" parent="4C4a_T4golNSF8rx9o6t-113" vertex="1">
          <mxGeometry width="110.00000000000001" height="116.66666666666667" as="geometry" />
        </mxCell>
        <mxCell id="4C4a_T4golNSF8rx9o6t-109" value="" style="shape=image;html=1;verticalAlign=top;verticalLabelPosition=bottom;labelBackgroundColor=#ffffff;imageAspect=0;aspect=fixed;image=https://icons.diagrams.net/icon-cache1/Social_Media-2937/1_Slack_colored_svg-1005.svg" parent="4C4a_T4golNSF8rx9o6t-113" vertex="1">
          <mxGeometry x="13.540000000000006" y="4.579999999999984" width="82.92" height="82.92" as="geometry" />
        </mxCell>
        <mxCell id="4C4a_T4golNSF8rx9o6t-100" value="Slack" style="text;html=1;align=center;verticalAlign=middle;whiteSpace=wrap;rounded=0;" parent="4C4a_T4golNSF8rx9o6t-113" vertex="1">
          <mxGeometry x="12.5" y="87.5" width="85.00000000000001" height="29.166666666666668" as="geometry" />
        </mxCell>
        <mxCell id="4C4a_T4golNSF8rx9o6t-114" value="" style="group" parent="4C4a_T4golNSF8rx9o6t-117" vertex="1" connectable="0">
          <mxGeometry x="16" y="160" width="110.00000000000001" height="116.66666666666663" as="geometry" />
        </mxCell>
        <mxCell id="4C4a_T4golNSF8rx9o6t-102" value="" style="rounded=0;whiteSpace=wrap;html=1;" parent="4C4a_T4golNSF8rx9o6t-114" vertex="1">
          <mxGeometry width="110.00000000000001" height="116.66666666666667" as="geometry" />
        </mxCell>
        <mxCell id="4C4a_T4golNSF8rx9o6t-110" value="" style="sketch=0;pointerEvents=1;shadow=0;dashed=0;html=1;strokeColor=none;fillColor=#DF8C42;labelPosition=center;verticalLabelPosition=bottom;verticalAlign=top;align=center;outlineConnect=0;shape=mxgraph.veeam2.microsoft_teams;" parent="4C4a_T4golNSF8rx9o6t-114" vertex="1">
          <mxGeometry x="18" y="10" width="74" height="74" as="geometry" />
        </mxCell>
        <mxCell id="4C4a_T4golNSF8rx9o6t-104" value="Teams" style="text;html=1;align=center;verticalAlign=middle;whiteSpace=wrap;rounded=0;" parent="4C4a_T4golNSF8rx9o6t-114" vertex="1">
          <mxGeometry x="12.5" y="87.5" width="85.00000000000001" height="29.166666666666668" as="geometry" />
        </mxCell>
        <mxCell id="4C4a_T4golNSF8rx9o6t-115" value="" style="group" parent="4C4a_T4golNSF8rx9o6t-117" vertex="1" connectable="0">
          <mxGeometry x="16" y="290" width="110.00000000000001" height="116.66666666666663" as="geometry" />
        </mxCell>
        <mxCell id="4C4a_T4golNSF8rx9o6t-106" value="" style="rounded=0;whiteSpace=wrap;html=1;" parent="4C4a_T4golNSF8rx9o6t-115" vertex="1">
          <mxGeometry width="110.00000000000001" height="116.66666666666667" as="geometry" />
        </mxCell>
        <mxCell id="4C4a_T4golNSF8rx9o6t-111" value="" style="verticalLabelPosition=bottom;aspect=fixed;html=1;shape=mxgraph.salesforce.web;fillColorStyles=fillColor2,fillColor3,fillColor4;fillColor2=#032d60;fillColor3=#0d9dda;fillColor4=#ffffff;fillColor=none;strokeColor=none;" parent="4C4a_T4golNSF8rx9o6t-115" vertex="1">
          <mxGeometry x="12.5" y="10" width="88.6" height="70" as="geometry" />
        </mxCell>
        <mxCell id="4C4a_T4golNSF8rx9o6t-108" value="Web App" style="text;html=1;align=center;verticalAlign=middle;whiteSpace=wrap;rounded=0;" parent="4C4a_T4golNSF8rx9o6t-115" vertex="1">
          <mxGeometry x="12.5" y="87.5" width="85.00000000000001" height="29.166666666666668" as="geometry" />
        </mxCell>
        <mxCell id="4C4a_T4golNSF8rx9o6t-116" value="User Channels" style="text;html=1;align=center;verticalAlign=middle;whiteSpace=wrap;rounded=0;" parent="4C4a_T4golNSF8rx9o6t-117" vertex="1">
          <mxGeometry width="96" height="30" as="geometry" />
        </mxCell>
        <mxCell id="4C4a_T4golNSF8rx9o6t-143" style="edgeStyle=orthogonalEdgeStyle;rounded=0;orthogonalLoop=1;jettySize=auto;html=1;exitX=1;exitY=0.5;exitDx=0;exitDy=0;entryX=-0.008;entryY=0.257;entryDx=0;entryDy=0;entryPerimeter=0;" parent="1" source="4C4a_T4golNSF8rx9o6t-121" target="4C4a_T4golNSF8rx9o6t-82" edge="1">
          <mxGeometry relative="1" as="geometry">
            <mxPoint x="-120" y="120.15151515151518" as="targetPoint" />
          </mxGeometry>
        </mxCell>
        <mxCell id="4C4a_T4golNSF8rx9o6t-121" value="Auth/SSO" style="rounded=0;whiteSpace=wrap;html=1;" parent="1" vertex="1">
          <mxGeometry x="-219.99999999999997" y="90.00000000000001" width="120" height="60" as="geometry" />
        </mxCell>
        <mxCell id="4C4a_T4golNSF8rx9o6t-126" style="edgeStyle=orthogonalEdgeStyle;rounded=0;orthogonalLoop=1;jettySize=auto;html=1;exitX=1;exitY=0.5;exitDx=0;exitDy=0;entryX=1;entryY=0.5;entryDx=0;entryDy=0;dashed=1;" parent="1" source="4C4a_T4golNSF8rx9o6t-18" target="4C4a_T4golNSF8rx9o6t-30" edge="1">
          <mxGeometry relative="1" as="geometry">
            <Array as="points">
              <mxPoint x="530" y="469" />
              <mxPoint x="530" y="338" />
            </Array>
          </mxGeometry>
        </mxCell>
        <mxCell id="4C4a_T4golNSF8rx9o6t-152" value="Store chunks/embeddings" style="edgeLabel;html=1;align=center;verticalAlign=middle;resizable=0;points=[];" parent="4C4a_T4golNSF8rx9o6t-126" vertex="1" connectable="0">
          <mxGeometry x="0.1417" relative="1" as="geometry">
            <mxPoint as="offset" />
          </mxGeometry>
        </mxCell>
        <mxCell id="4C4a_T4golNSF8rx9o6t-131" style="edgeStyle=orthogonalEdgeStyle;rounded=0;orthogonalLoop=1;jettySize=auto;html=1;exitX=0;exitY=0.5;exitDx=0;exitDy=0;entryX=0.993;entryY=0.824;entryDx=0;entryDy=0;entryPerimeter=0;" parent="1" target="4C4a_T4golNSF8rx9o6t-82" edge="1">
          <mxGeometry relative="1" as="geometry">
            <mxPoint x="212.5" y="185.00000000000006" as="sourcePoint" />
            <mxPoint x="10" y="184.79250000000002" as="targetPoint" />
          </mxGeometry>
        </mxCell>
        <mxCell id="4C4a_T4golNSF8rx9o6t-132" value="Context" style="edgeLabel;html=1;align=center;verticalAlign=middle;resizable=0;points=[];" parent="4C4a_T4golNSF8rx9o6t-131" vertex="1" connectable="0">
          <mxGeometry x="0.0439" relative="1" as="geometry">
            <mxPoint x="-7" as="offset" />
          </mxGeometry>
        </mxCell>
        <mxCell id="4C4a_T4golNSF8rx9o6t-142" value="" style="endArrow=classic;html=1;rounded=0;exitX=1.004;exitY=0.238;exitDx=0;exitDy=0;entryX=0;entryY=0.5;entryDx=0;entryDy=0;exitPerimeter=0;" parent="1" source="4C4a_T4golNSF8rx9o6t-112" target="4C4a_T4golNSF8rx9o6t-121" edge="1">
          <mxGeometry width="50" height="50" relative="1" as="geometry">
            <mxPoint x="-330" y="180" as="sourcePoint" />
            <mxPoint x="-280" y="130" as="targetPoint" />
          </mxGeometry>
        </mxCell>
        <mxCell id="4C4a_T4golNSF8rx9o6t-145" style="edgeStyle=orthogonalEdgeStyle;rounded=0;orthogonalLoop=1;jettySize=auto;html=1;exitX=0;exitY=0.25;exitDx=0;exitDy=0;entryX=1.007;entryY=0.393;entryDx=0;entryDy=0;entryPerimeter=0;" parent="1" source="4C4a_T4golNSF8rx9o6t-84" target="4C4a_T4golNSF8rx9o6t-112" edge="1">
          <mxGeometry relative="1" as="geometry" />
        </mxCell>
        <mxCell id="4C4a_T4golNSF8rx9o6t-146" value="Answer + Citations" style="edgeLabel;html=1;align=center;verticalAlign=middle;resizable=0;points=[];" parent="4C4a_T4golNSF8rx9o6t-145" vertex="1" connectable="0">
          <mxGeometry x="-0.004" y="1" relative="1" as="geometry">
            <mxPoint as="offset" />
          </mxGeometry>
        </mxCell>
        <mxCell id="4C4a_T4golNSF8rx9o6t-147" value="Basic Telemetry&lt;br&gt;(Writted to console/text-file)" style="rounded=0;whiteSpace=wrap;html=1;" parent="1" vertex="1">
          <mxGeometry x="-100" y="10" width="160" height="60" as="geometry" />
        </mxCell>
        <mxCell id="4C4a_T4golNSF8rx9o6t-148" style="edgeStyle=orthogonalEdgeStyle;rounded=0;orthogonalLoop=1;jettySize=auto;html=1;exitX=0.5;exitY=0;exitDx=0;exitDy=0;entryX=0.5;entryY=1;entryDx=0;entryDy=0;" parent="1" source="4C4a_T4golNSF8rx9o6t-82" target="4C4a_T4golNSF8rx9o6t-147" edge="1">
          <mxGeometry relative="1" as="geometry" />
        </mxCell>
        <mxCell id="4C4a_T4golNSF8rx9o6t-149" value="" style="endArrow=classic;startArrow=classic;html=1;rounded=0;entryX=0.5;entryY=1;entryDx=0;entryDy=0;exitX=0.5;exitY=0;exitDx=0;exitDy=0;" parent="1" source="4C4a_T4golNSF8rx9o6t-93" target="4C4a_T4golNSF8rx9o6t-84" edge="1">
          <mxGeometry width="50" height="50" relative="1" as="geometry">
            <mxPoint x="40" y="300" as="sourcePoint" />
            <mxPoint x="90" y="250" as="targetPoint" />
          </mxGeometry>
        </mxCell>
        <mxCell id="4C4a_T4golNSF8rx9o6t-150" value="User prompt + Context / Answer + Citations" style="edgeLabel;html=1;align=center;verticalAlign=middle;resizable=0;points=[];" parent="4C4a_T4golNSF8rx9o6t-149" vertex="1" connectable="0">
          <mxGeometry x="0.0271" relative="1" as="geometry">
            <mxPoint as="offset" />
          </mxGeometry>
        </mxCell>
      </root>
    </mxGraphModel>
  </diagram>
</mxfile>
